<svg width="26" height="25" viewBox="0 0 26 25" fill="none" xmlns="http://www.w3.org/2000/svg">
<path d="M1.4837 0.349988C1.60189 0.315092 1.7258 0.303839 1.84834 0.316874C1.97088 0.329909 2.08965 0.366975 2.19785 0.425953C2.30605 0.484931 2.40157 0.564663 2.47893 0.660587C2.55629 0.756512 2.61398 0.866748 2.6487 0.984989L3.3362 3.31249H21.6549C23.9549 3.31249 25.7112 5.45874 25.0487 7.69999L22.9799 14.7C22.5399 16.1925 21.1412 17.1875 19.5862 17.1875H8.1412C6.5862 17.1875 5.1887 16.1925 4.74745 14.7L0.851198 1.51624C0.780623 1.27788 0.807609 1.02124 0.92622 0.802772C1.04483 0.584302 1.24536 0.420635 1.4837 0.349988ZM5.81245 21.875C5.81245 21.1291 6.10876 20.4137 6.63621 19.8863C7.16366 19.3588 7.87903 19.0625 8.62495 19.0625C9.37087 19.0625 10.0862 19.3588 10.6137 19.8863C11.1411 20.4137 11.4374 21.1291 11.4374 21.875C11.4374 22.6209 11.1411 23.3363 10.6137 23.8637C10.0862 24.3912 9.37087 24.6875 8.62495 24.6875C7.87903 24.6875 7.16366 24.3912 6.63621 23.8637C6.10876 23.3363 5.81245 22.6209 5.81245 21.875ZM15.8124 21.875C15.8124 21.5056 15.8852 21.1399 16.0265 20.7987C16.1679 20.4575 16.375 20.1474 16.6362 19.8863C16.8974 19.6251 17.2074 19.4179 17.5487 19.2766C17.8899 19.1352 18.2556 19.0625 18.6249 19.0625C18.9943 19.0625 19.36 19.1352 19.7012 19.2766C20.0425 19.4179 20.3525 19.6251 20.6137 19.8863C20.8749 20.1474 21.082 20.4575 21.2234 20.7987C21.3647 21.1399 21.4374 21.5056 21.4374 21.875C21.4374 22.6209 21.1411 23.3363 20.6137 23.8637C20.0862 24.3912 19.3709 24.6875 18.6249 24.6875C17.879 24.6875 17.1637 24.3912 16.6362 23.8637C16.1088 23.3363 15.8124 22.6209 15.8124 21.875Z" fill="#23704D"/>
</svg>
