<svg width="44" height="44" viewBox="0 0 44 44" fill="none" xmlns="http://www.w3.org/2000/svg">
<path d="M5.5 20.1667C5.5 13.2532 5.5 9.7955 7.64867 7.64867C9.79733 5.50183 13.2532 5.5 20.1667 5.5H23.8333C30.7468 5.5 34.2045 5.5 36.3513 7.64867C38.4982 9.79733 38.5 13.2532 38.5 20.1667V23.8333C38.5 30.7468 38.5 34.2045 36.3513 36.3513C34.2027 38.4982 30.7468 38.5 23.8333 38.5H20.1667C13.2532 38.5 9.7955 38.5 7.64867 36.3513C5.50183 34.2027 5.5 30.7468 5.5 23.8333V20.1667Z" stroke="white" stroke-width="2"/>
<path d="M30.25 11.5C31.4926 11.5 32.5 12.5074 32.5 13.75C32.5 14.9926 31.4926 16 30.25 16C29.0074 16 28 14.9926 28 13.75C28 12.5074 29.0074 11.5 30.25 11.5Z" fill="white" stroke="white"/>
<path d="M22 27.5C25.0376 27.5 27.5 25.0376 27.5 22C27.5 18.9624 25.0376 16.5 22 16.5C18.9624 16.5 16.5 18.9624 16.5 22C16.5 25.0376 18.9624 27.5 22 27.5Z" stroke="white" stroke-width="2"/>
</svg>
