<svg width="44" height="44" viewBox="0 0 44 44" fill="none" xmlns="http://www.w3.org/2000/svg">
<mask id="mask0_165_2186" style="mask-type:luminance" maskUnits="userSpaceOnUse" x="5" y="3" width="36" height="36">
<path d="M5.5 3.5H40.5V38.5H5.5V3.5Z" fill="white"/>
</mask>
<g mask="url(#mask0_165_2186)">
<path d="M18.3276 21.3849V22.2949C18.3276 22.4524 18.2401 22.5224 18.0826 22.5224H14.4601C14.2501 22.5224 14.1801 22.5224 14.1801 22.2424V16.6249C14.1801 16.3974 14.1801 16.3274 14.4776 16.3274H15.2826C15.4926 16.3274 15.5626 16.4149 15.5626 16.6074V21.0874H18.1351C18.186 21.0929 18.2335 21.1154 18.27 21.1513C18.3066 21.1872 18.3299 21.2343 18.3363 21.2851C18.3432 21.3185 18.3401 21.3532 18.3276 21.3849ZM20.5676 16.6074V22.2424C20.5676 22.4524 20.5676 22.5224 20.2701 22.5224C19.9901 22.5399 19.7101 22.5399 19.4301 22.5224C19.3919 22.5284 19.3529 22.5252 19.3162 22.5133C19.2795 22.5013 19.2461 22.4809 19.2189 22.4536C19.1916 22.4263 19.1711 22.3929 19.1591 22.3562C19.1472 22.3195 19.1441 22.2805 19.1501 22.2424V16.6074C19.1408 16.5614 19.144 16.5138 19.1593 16.4695C19.1747 16.4252 19.2016 16.3858 19.2374 16.3555C19.2731 16.3251 19.3163 16.3049 19.3625 16.2968C19.4087 16.2888 19.4562 16.2933 19.5001 16.3099H20.3226C20.3587 16.312 20.394 16.3215 20.4263 16.3379C20.4585 16.3543 20.4871 16.3771 20.5101 16.4051C20.5331 16.433 20.5501 16.4654 20.56 16.5002C20.5699 16.535 20.5724 16.5715 20.5676 16.6074ZM26.9201 16.5899V22.2424C26.9201 22.4349 26.9201 22.5049 26.6401 22.5049H25.7476C25.7066 22.5064 25.6658 22.4975 25.6292 22.4792C25.5925 22.4608 25.561 22.4336 25.5376 22.3999L24.2251 20.6499L23.0001 18.9874V18.8649V22.2599C23.0001 22.5049 23.0001 22.5574 22.7026 22.5574H21.8976C21.84 22.5665 21.781 22.5547 21.7313 22.5243C21.6816 22.4938 21.6443 22.4466 21.6263 22.3911C21.6145 22.3544 21.6115 22.3155 21.6176 22.2774V16.6249C21.6149 16.5897 21.6199 16.5544 21.6322 16.5214C21.6445 16.4884 21.6637 16.4584 21.6886 16.4335C21.7136 16.4085 21.7436 16.3893 21.7766 16.377C21.8096 16.3648 21.8449 16.3598 21.8801 16.3624H22.8426C22.8748 16.3675 22.9056 16.3796 22.9327 16.3977C22.9599 16.4158 22.9829 16.4396 23.0001 16.4674L24.9251 19.2499L25.4326 19.9324V20.0199V16.6249C25.4326 16.3974 25.5201 16.3099 25.7476 16.3099H26.5351C26.8151 16.3099 26.9201 16.3974 26.9201 16.5899ZM32.0126 16.6249V17.4999C32.0126 17.6924 32.0126 17.7799 31.7501 17.7799H29.3876C29.2651 17.7799 29.2651 17.7799 29.2651 17.9024V18.6374C29.2651 18.7774 29.2651 18.7774 29.3876 18.7774H31.7501C31.9776 18.7774 32.0476 18.8649 32.0476 19.0924V19.8974C32.0535 19.9355 32.0504 19.9745 32.0385 20.0112C32.0265 20.0479 32.006 20.0813 31.9788 20.1086C31.9515 20.1359 31.9181 20.1563 31.8814 20.1683C31.8447 20.1802 31.8057 20.1834 31.7676 20.1774H29.3876C29.2651 20.1774 29.2651 20.1774 29.2651 20.3174V20.9999C29.2651 21.1399 29.2651 21.1399 29.3876 21.1399H31.7501C31.9601 21.1399 32.0301 21.1399 32.0301 21.4374V22.2424C32.0301 22.4524 32.0301 22.5224 31.7501 22.5224H28.1626C27.8476 22.5224 27.8651 22.5224 27.8651 22.2424V16.6249C27.8651 16.4149 27.9526 16.3274 28.1626 16.3274H31.6626C31.9426 16.3274 32.0126 16.4149 32.0126 16.6249Z" fill="white"/>
<path d="M33.5 3.5H12.5C10.6435 3.5 8.86301 4.2375 7.55025 5.55025C6.2375 6.86301 5.5 8.64348 5.5 10.5V31.5C5.5 33.3565 6.2375 35.137 7.55025 36.4497C8.86301 37.7625 10.6435 38.5 12.5 38.5H33.5C35.3565 38.5 37.137 37.7625 38.4497 36.4497C39.7625 35.137 40.5 33.3565 40.5 31.5V10.5C40.5 8.64348 39.7625 6.86301 38.4497 5.55025C37.137 4.2375 35.3565 3.5 33.5 3.5ZM35.425 22.75C34.9802 23.7524 34.3906 24.684 33.675 25.515C32.5305 26.8131 31.2517 27.9863 29.86 29.015C28.2488 30.2808 26.5688 31.4475 24.82 32.515C24.2775 32.8475 23.7175 33.145 23.1575 33.425C22.9133 33.5689 22.636 33.6473 22.3525 33.6525C22.2894 33.6644 22.2244 33.661 22.1629 33.6426C22.1014 33.6242 22.0451 33.5914 21.9989 33.5469C21.9527 33.5023 21.9177 33.4474 21.897 33.3866C21.8764 33.3258 21.8705 33.261 21.88 33.1975C21.8636 32.9586 21.8636 32.7189 21.88 32.48C21.996 31.939 22.0605 31.3882 22.0725 30.835C22.0772 30.6701 22.0332 30.5075 21.946 30.3675C21.8589 30.2274 21.7325 30.1162 21.5825 30.0475C21.2907 29.9041 20.9774 29.8095 20.655 29.7675C18.971 29.5245 17.3389 29.0041 15.825 28.2275C14.3986 27.4987 13.1315 26.4933 12.0975 25.27C11.0396 24.0367 10.3111 22.5557 9.98 20.965C9.98 20.5975 9.875 20.23 9.84 19.845C9.805 19.46 9.84 19.1275 9.84 18.76C9.89254 17.7924 10.1054 16.8403 10.47 15.9425C10.9446 14.7438 11.6323 13.641 12.5 12.6875C13.7415 11.3883 15.2365 10.3578 16.8925 9.66C17.9361 9.24199 19.0214 8.93692 20.13 8.75L21.46 8.575H24.4175C26.4227 8.73991 28.3745 9.30522 30.1575 10.2375C31.4 10.8762 32.5305 11.7145 33.5 12.7225C34.5172 13.7846 35.2775 15.0658 35.7225 16.4675C35.915 17.0328 36.0392 17.6225 36.09 18.2175V19.355C36.1115 20.521 35.8848 21.6783 35.425 22.75Z" fill="white"/>
<path d="M26.9201 16.5899V22.2424C26.9201 22.4349 26.9201 22.5049 26.6401 22.5049H25.7476C25.7066 22.5064 25.6658 22.4975 25.6292 22.4792C25.5925 22.4608 25.561 22.4336 25.5376 22.3999L24.2251 20.6499L23.0001 18.9874V18.8649V22.2599C23.0001 22.5049 23.0001 22.5574 22.7026 22.5574H21.8976C21.84 22.5665 21.781 22.5547 21.7313 22.5243C21.6816 22.4938 21.6443 22.4466 21.6263 22.3911C21.6145 22.3544 21.6115 22.3155 21.6176 22.2774V16.6249C21.6149 16.5897 21.6199 16.5544 21.6322 16.5214C21.6445 16.4884 21.6637 16.4584 21.6886 16.4335C21.7136 16.4085 21.7436 16.3893 21.7766 16.377C21.8096 16.3648 21.8449 16.3598 21.8801 16.3624H22.8426C22.8748 16.3675 22.9056 16.3796 22.9327 16.3977C22.9599 16.4158 22.9829 16.4396 23.0001 16.4674L24.9251 19.2499L25.4326 19.9324V20.0199V16.6249C25.4326 16.3974 25.5201 16.3099 25.7476 16.3099H26.5351C26.8151 16.3099 26.9201 16.3974 26.9201 16.5899ZM29.2651 17.8499V18.5849C29.2651 18.7249 29.2651 18.7249 29.3876 18.7249H31.7501C31.9776 18.7249 32.0476 18.8124 32.0476 19.0399V19.8449C32.0535 19.883 32.0504 19.922 32.0385 19.9587C32.0265 19.9954 32.006 20.0288 31.9788 20.0561C31.9515 20.0834 31.9181 20.1038 31.8814 20.1158C31.8447 20.1277 31.8057 20.1309 31.7676 20.1249H29.3876C29.2651 20.1249 29.2651 20.1249 29.2651 20.2649V20.9999C29.2651 21.1399 29.2651 21.1399 29.3876 21.1399H31.7501C31.9601 21.1399 32.0301 21.1399 32.0301 21.4374V22.2424C32.0301 22.4524 32.0301 22.5224 31.7501 22.5224H28.1626C27.8476 22.5224 27.8651 22.5224 27.8651 22.2424V16.6249C27.8651 16.4149 27.9526 16.3274 28.1626 16.3274H31.6626C31.8726 16.3274 31.9426 16.4149 31.9426 16.6249V17.4999C31.9426 17.6924 31.9426 17.7799 31.6801 17.7799H29.3876C29.2651 17.7274 29.2651 17.7274 29.2651 17.8499ZM18.3276 21.3849V22.2949C18.3276 22.4524 18.2401 22.5224 18.0826 22.5224H14.4601C14.2501 22.5224 14.1801 22.5224 14.1801 22.2424V16.6249C14.1801 16.3974 14.1801 16.3274 14.4776 16.3274H15.2826C15.4926 16.3274 15.5626 16.4149 15.5626 16.6074V21.0874H18.1351C18.186 21.0929 18.2335 21.1154 18.27 21.1513C18.3066 21.1872 18.3299 21.2343 18.3363 21.2851C18.3432 21.3185 18.3401 21.3532 18.3276 21.3849ZM20.5676 16.6074V22.2424C20.5676 22.4524 20.5676 22.5224 20.2701 22.5224C19.9901 22.5399 19.7101 22.5399 19.4301 22.5224C19.3919 22.5284 19.3529 22.5252 19.3162 22.5133C19.2795 22.5013 19.2461 22.4809 19.2189 22.4536C19.1916 22.4263 19.1711 22.3929 19.1591 22.3562C19.1472 22.3195 19.1441 22.2805 19.1501 22.2424V16.6074C19.1408 16.5614 19.144 16.5138 19.1593 16.4695C19.1747 16.4252 19.2016 16.3858 19.2374 16.3555C19.2731 16.3251 19.3163 16.3049 19.3625 16.2968C19.4087 16.2888 19.4562 16.2933 19.5001 16.3099H20.3226C20.3587 16.312 20.394 16.3215 20.4263 16.3379C20.4585 16.3543 20.4871 16.3771 20.5101 16.4051C20.5331 16.433 20.5501 16.4654 20.56 16.5002C20.5699 16.535 20.5724 16.5715 20.5676 16.6074Z" fill="white"/>
</g>
</svg>
