<svg width="30" height="31" viewBox="0 0 30 31" fill="none" xmlns="http://www.w3.org/2000/svg">
<path d="M24.5 26.75L16.625 18.875C16 19.375 15.2813 19.7708 14.4688 20.0625C13.6563 20.3542 12.7917 20.5 11.875 20.5C9.60417 20.5 7.6825 19.7133 6.11 18.14C4.5375 16.5667 3.75083 14.645 3.75 12.375C3.74917 10.105 4.53583 8.18333 6.11 6.61C7.68417 5.03667 9.60583 4.25 11.875 4.25C14.1442 4.25 16.0663 5.03667 17.6413 6.61C19.2163 8.18333 20.0025 10.105 20 12.375C20 13.2917 19.8542 14.1562 19.5625 14.9688C19.2708 15.7812 18.875 16.5 18.375 17.125L26.25 25L24.5 26.75ZM11.875 18C13.4375 18 14.7658 17.4533 15.86 16.36C16.9542 15.2667 17.5008 13.9383 17.5 12.375C17.4992 10.8117 16.9525 9.48375 15.86 8.39125C14.7675 7.29875 13.4392 6.75167 11.875 6.75C10.3108 6.74833 8.98292 7.29542 7.89125 8.39125C6.79958 9.48708 6.2525 10.815 6.25 12.375C6.2475 13.935 6.79458 15.2633 7.89125 16.36C8.98792 17.4567 10.3158 18.0033 11.875 18Z" fill="#23704D"/>
</svg>
