<svg width="104" height="22" viewBox="0 0 104 22" fill="none" xmlns="http://www.w3.org/2000/svg">
<mask id="path-1-inside-1_261_92" fill="white">
<path d="M31.1696 21.0106L31.1586 21.0126L31.0876 21.0476L31.0676 21.0516L31.0536 21.0476L30.9826 21.0126C30.972 21.0093 30.964 21.011 30.9586 21.0176L30.9546 21.0276L30.9376 21.4556L30.9426 21.4756L30.9526 21.4886L31.0566 21.5626L31.0716 21.5666L31.0836 21.5626L31.1876 21.4886L31.1996 21.4726L31.2036 21.4556L31.1866 21.0286C31.184 21.018 31.1783 21.012 31.1696 21.0106ZM31.4346 20.8976L31.4216 20.8996L31.2366 20.9926L31.2266 21.0026L31.2236 21.0136L31.2416 21.4436L31.2466 21.4556L31.2546 21.4626L31.4556 21.5556C31.4683 21.559 31.478 21.5563 31.4846 21.5476L31.4886 21.5336L31.4546 20.9196C31.4513 20.9076 31.4446 20.9003 31.4346 20.8976ZM30.7196 20.8996C30.7152 20.897 30.71 20.8961 30.7049 20.8972C30.6999 20.8983 30.6955 20.9013 30.6926 20.9056L30.6866 20.9196L30.6526 21.5336C30.6533 21.5456 30.659 21.5536 30.6696 21.5576L30.6846 21.5556L30.8856 21.4626L30.8956 21.4546L30.8996 21.4436L30.9166 21.0136L30.9136 21.0016L30.9036 20.9916L30.7196 20.8996Z"/>
</mask>
<path d="M31.1696 21.0106L31.3217 20.0223L31.1558 19.9967L30.9907 20.0268L31.1696 21.0106ZM31.1586 21.0126L30.9797 20.0288L30.842 20.0538L30.7165 20.1157L31.1586 21.0126ZM31.0876 21.0476L31.2838 22.0282L31.4123 22.0025L31.5298 21.9446L31.0876 21.0476ZM31.0676 21.0516L30.7929 22.0132L31.026 22.0797L31.2638 22.0322L31.0676 21.0516ZM31.0536 21.0476L30.6115 21.9446L30.6923 21.9844L30.7789 22.0092L31.0536 21.0476ZM30.9826 21.0126L31.4248 20.1157L31.3551 20.0813L31.2809 20.0581L30.9826 21.0126ZM30.9586 21.0176L30.1778 20.3929L30.0852 20.5087L30.0302 20.6463L30.9586 21.0176ZM30.9546 21.0276L30.0262 20.6563L29.9623 20.816L29.9554 20.9879L30.9546 21.0276ZM30.9376 21.4556L29.9384 21.4159L29.9327 21.5591L29.9675 21.6982L30.9376 21.4556ZM30.9426 21.4756L29.9725 21.7182L30.023 21.9202L30.15 22.0853L30.9426 21.4756ZM30.9526 21.4886L30.16 22.0983L30.2511 22.2168L30.3729 22.3034L30.9526 21.4886ZM31.0566 21.5626L30.4769 22.3774L30.6243 22.4823L30.799 22.5289L31.0566 21.5626ZM31.0716 21.5666L30.814 22.5329L31.1036 22.6101L31.3879 22.5153L31.0716 21.5666ZM31.0836 21.5626L31.3999 22.5113L31.5416 22.4641L31.6634 22.3774L31.0836 21.5626ZM31.1876 21.4886L31.7674 22.3034L31.8943 22.2132L31.9877 22.0886L31.1876 21.4886ZM31.1996 21.4726L31.9997 22.0726L32.1252 21.9053L32.1731 21.7016L31.1996 21.4726ZM31.2036 21.4556L32.1771 21.6846L32.2083 21.552L32.2029 21.4158L31.2036 21.4556ZM31.1866 21.0286L32.1859 20.9888L32.1818 20.886L32.1568 20.7861L31.1866 21.0286ZM31.4346 20.8976L31.6923 19.9314L31.4898 19.8774L31.2827 19.9092L31.4346 20.8976ZM31.4216 20.8996L31.2697 19.9112L31.1136 19.9352L30.9725 20.0062L31.4216 20.8996ZM31.2366 20.9926L30.7875 20.0992L30.6435 20.1716L30.5295 20.2855L31.2366 20.9926ZM31.2266 21.0026L30.5195 20.2955L30.3317 20.4833L30.2619 20.7396L31.2266 21.0026ZM31.2236 21.0136L30.2589 20.7506L30.218 20.9003L30.2245 21.0554L31.2236 21.0136ZM31.2416 21.4436L30.2425 21.4854L30.25 21.6636L30.3186 21.8283L31.2416 21.4436ZM31.2466 21.4556L30.3236 21.8403L30.4131 22.055L30.5882 22.2082L31.2466 21.4556ZM31.2546 21.4626L30.5962 22.2152L30.7043 22.3098L30.8347 22.3702L31.2546 21.4626ZM31.4556 21.5556L31.0357 22.4632L31.1158 22.5002L31.2012 22.5227L31.4556 21.5556ZM31.4846 21.5476L32.2773 22.1573L32.3937 22.006L32.4462 21.8223L31.4846 21.5476ZM31.4886 21.5336L32.4502 21.8083L32.4964 21.6464L32.4871 21.4783L31.4886 21.5336ZM31.4546 20.9196L32.4531 20.8643L32.4471 20.7563L32.4182 20.652L31.4546 20.9196ZM30.7196 20.8996L30.2014 21.7548L30.2361 21.7759L30.2724 21.794L30.7196 20.8996ZM30.6926 20.9056L29.8609 20.3504L29.8098 20.427L29.7735 20.5117L30.6926 20.9056ZM30.6866 20.9196L29.7675 20.5257L29.6979 20.688L29.6882 20.8643L30.6866 20.9196ZM30.6526 21.5336L29.6542 21.4783L29.6511 21.5337L29.6542 21.5891L30.6526 21.5336ZM30.6696 21.5576L30.3185 22.494L30.5533 22.582L30.8019 22.5488L30.6696 21.5576ZM30.6846 21.5556L30.8169 22.5468L30.9671 22.5268L31.1046 22.4632L30.6846 21.5556ZM30.8856 21.4626L31.3056 22.3702L31.4156 22.3193L31.5103 22.2435L30.8856 21.4626ZM30.8956 21.4546L31.5203 22.2355L31.7395 22.0602L31.8354 21.7964L30.8956 21.4546ZM30.8996 21.4436L31.8394 21.7854L31.8927 21.6389L31.8989 21.4831L30.8996 21.4436ZM30.9166 21.0136L31.9159 21.0531L31.9215 20.91L31.8868 20.7711L30.9166 21.0136ZM30.9136 21.0016L31.8838 20.7591L31.8166 20.4904L31.6208 20.2945L30.9136 21.0016ZM30.9036 20.9916L31.6108 20.2845L31.496 20.1698L31.3509 20.0972L30.9036 20.9916ZM31.1696 21.0106L30.9907 20.0268L30.9797 20.0288L31.1586 21.0126L31.3376 21.9965L31.3486 21.9945L31.1696 21.0106ZM31.1586 21.0126L30.7165 20.1157L30.6455 20.1507L31.0876 21.0476L31.5298 21.9446L31.6008 21.9096L31.1586 21.0126ZM31.0876 21.0476L30.8915 20.067L30.8715 20.071L31.0676 21.0516L31.2638 22.0322L31.2838 22.0282L31.0876 21.0476ZM31.0676 21.0516L31.3424 20.0901L31.3284 20.0861L31.0536 21.0476L30.7789 22.0092L30.7929 22.0132L31.0676 21.0516ZM31.0536 21.0476L31.4958 20.1507L31.4248 20.1157L30.9826 21.0126L30.5405 21.9096L30.6115 21.9446L31.0536 21.0476ZM30.9826 21.0126L31.2809 20.0581C31.1701 20.0235 30.9856 19.9864 30.7647 20.0324C30.5223 20.0829 30.3187 20.2168 30.1778 20.3929L30.9586 21.0176L31.7395 21.6423C31.6039 21.8118 31.407 21.9415 31.1726 21.9904C30.9597 22.0347 30.7845 21.9984 30.6844 21.9671L30.9826 21.0126ZM30.9586 21.0176L30.0302 20.6463L30.0262 20.6563L30.9546 21.0276L31.8831 21.399L31.8871 21.389L30.9586 21.0176ZM30.9546 21.0276L29.9554 20.9879L29.9384 21.4159L30.9376 21.4556L31.9369 21.4953L31.9539 21.0673L30.9546 21.0276ZM30.9376 21.4556L29.9675 21.6982L29.9725 21.7182L30.9426 21.4756L31.9128 21.2331L31.9078 21.2131L30.9376 21.4556ZM30.9426 21.4756L30.15 22.0853L30.16 22.0983L30.9526 21.4886L31.7453 20.8789L31.7353 20.8659L30.9426 21.4756ZM30.9526 21.4886L30.3729 22.3034L30.4769 22.3774L31.0566 21.5626L31.6364 20.7478L31.5324 20.6738L30.9526 21.4886ZM31.0566 21.5626L30.799 22.5289L30.814 22.5329L31.0716 21.5666L31.3293 20.6004L31.3143 20.5964L31.0566 21.5626ZM31.0716 21.5666L31.3879 22.5153L31.3999 22.5113L31.0836 21.5626L30.7674 20.6139L30.7554 20.6179L31.0716 21.5666ZM31.0836 21.5626L31.6634 22.3774L31.7674 22.3034L31.1876 21.4886L30.6079 20.6738L30.5039 20.7478L31.0836 21.5626ZM31.1876 21.4886L31.9877 22.0886L31.9997 22.0726L31.1996 21.4726L30.3996 20.8726L30.3876 20.8886L31.1876 21.4886ZM31.1996 21.4726L32.1731 21.7016L32.1771 21.6846L31.2036 21.4556L30.2302 21.2266L30.2262 21.2436L31.1996 21.4726ZM31.2036 21.4556L32.2029 21.4158L32.1859 20.9888L31.1866 21.0286L30.1874 21.0684L30.2044 21.4954L31.2036 21.4556ZM31.1866 21.0286L32.1568 20.7861C32.1272 20.6677 32.0608 20.4919 31.9074 20.3295C31.7419 20.1543 31.5312 20.0545 31.3217 20.0223L31.1696 21.0106L31.0176 21.999C30.8168 21.9681 30.6132 21.872 30.4534 21.7027C30.3057 21.5463 30.2434 21.3789 30.2165 21.2712L31.1866 21.0286ZM31.4346 20.8976L31.2827 19.9092L31.2697 19.9112L31.4216 20.8996L31.5736 21.888L31.5866 21.886L31.4346 20.8976ZM31.4216 20.8996L30.9725 20.0062L30.7875 20.0992L31.2366 20.9926L31.6858 21.8861L31.8708 21.7931L31.4216 20.8996ZM31.2366 20.9926L30.5295 20.2855L30.5195 20.2955L31.2266 21.0026L31.9338 21.7097L31.9438 21.6997L31.2366 20.9926ZM31.2266 21.0026L30.2619 20.7396L30.2589 20.7506L31.2236 21.0136L32.1884 21.2767L32.1914 21.2657L31.2266 21.0026ZM31.2236 21.0136L30.2245 21.0554L30.2425 21.4854L31.2416 21.4436L32.2408 21.4018L32.2228 20.9718L31.2236 21.0136ZM31.2416 21.4436L30.3186 21.8283L30.3236 21.8403L31.2466 21.4556L32.1697 21.071L32.1647 21.059L31.2416 21.4436ZM31.2466 21.4556L30.5882 22.2082L30.5962 22.2152L31.2546 21.4626L31.9131 20.71L31.9051 20.703L31.2466 21.4556ZM31.2546 21.4626L30.8347 22.3702L31.0357 22.4632L31.4556 21.5556L31.8756 20.6481L31.6746 20.5551L31.2546 21.4626ZM31.4556 21.5556L31.2012 22.5227C31.3273 22.5559 31.5189 22.5806 31.7383 22.5201C31.9717 22.4557 32.1542 22.3174 32.2773 22.1573L31.4846 21.5476L30.692 20.9379C30.8085 20.7865 30.9828 20.6538 31.2065 20.5921C31.4163 20.5343 31.5967 20.5587 31.7101 20.5885L31.4556 21.5556ZM31.4846 21.5476L32.4462 21.8223L32.4502 21.8083L31.4886 21.5336L30.5271 21.2589L30.5231 21.2729L31.4846 21.5476ZM31.4886 21.5336L32.4871 21.4783L32.4531 20.8643L31.4546 20.9196L30.4562 20.9749L30.4902 21.5889L31.4886 21.5336ZM31.4546 20.9196L32.4182 20.652C32.3426 20.3801 32.1194 20.0453 31.6923 19.9314L31.4346 20.8976L31.177 21.8639C31.005 21.818 30.839 21.7228 30.7072 21.5778C30.5819 21.44 30.5208 21.2942 30.4911 21.1873L31.4546 20.9196ZM30.7196 20.8996L31.2379 20.0444C31.0131 19.9081 30.7444 19.864 30.488 19.921L30.7049 20.8972L30.9219 21.8734C30.6755 21.9281 30.4174 21.8858 30.2014 21.7548L30.7196 20.8996ZM30.7049 20.8972L30.488 19.921C30.2315 19.978 30.0069 20.1318 29.8609 20.3504L30.6926 20.9056L31.5244 21.4608C31.3841 21.6709 31.1683 21.8186 30.9219 21.8734L30.7049 20.8972ZM30.6926 20.9056L29.7735 20.5117L29.7675 20.5257L30.6866 20.9196L31.6058 21.3136L31.6118 21.2996L30.6926 20.9056ZM30.6866 20.9196L29.6882 20.8643L29.6542 21.4783L30.6526 21.5336L31.6511 21.5889L31.6851 20.9749L30.6866 20.9196ZM30.6526 21.5336L29.6542 21.5891C29.6626 21.7404 29.7075 21.9377 29.8414 22.1266C29.9777 22.3191 30.157 22.4334 30.3185 22.494L30.6696 21.5576L31.0208 20.6213C31.1716 20.6779 31.3428 20.7862 31.4734 20.9706C31.6016 21.1516 31.6434 21.3388 31.6511 21.4782L30.6526 21.5336ZM30.6696 21.5576L30.8019 22.5488L30.8169 22.5468L30.6846 21.5556L30.5524 20.5644L30.5374 20.5664L30.6696 21.5576ZM30.6846 21.5556L31.1046 22.4632L31.3056 22.3702L30.8856 21.4626L30.4657 20.5551L30.2647 20.6481L30.6846 21.5556ZM30.8856 21.4626L31.5103 22.2435L31.5203 22.2355L30.8956 21.4546L30.271 20.6737L30.261 20.6817L30.8856 21.4626ZM30.8956 21.4546L31.8354 21.7964L31.8394 21.7854L30.8996 21.4436L29.9599 21.1019L29.9559 21.1129L30.8956 21.4546ZM30.8996 21.4436L31.8989 21.4831L31.9159 21.0531L30.9166 21.0136L29.9174 20.9741L29.9004 21.4041L30.8996 21.4436ZM30.9166 21.0136L31.8868 20.7711L31.8838 20.7591L30.9136 21.0016L29.9435 21.2442L29.9465 21.2562L30.9166 21.0136ZM30.9136 21.0016L31.6208 20.2945L31.6108 20.2845L30.9036 20.9916L30.1965 21.6987L30.2065 21.7087L30.9136 21.0016ZM30.9036 20.9916L31.3509 20.0972L31.1669 20.0052L30.7196 20.8996L30.2724 21.794L30.4564 21.886L30.9036 20.9916Z" fill="black" mask="url(#path-1-inside-1_261_92)"/>
<path d="M30.5764 0.5C30.6748 0.5 30.7722 0.519368 30.8625 0.556641L30.9504 0.599609C31.0357 0.648618 31.1104 0.71371 31.1702 0.791016L31.2249 0.87207L34.0198 5.66992L34.1301 5.86035L34.3459 5.90723L39.7737 7.08301C39.9017 7.11086 40.0203 7.17188 40.1174 7.25977C40.2146 7.34771 40.2869 7.46027 40.3274 7.58496C40.3678 7.70954 40.3749 7.84255 40.3479 7.9707C40.3276 8.06686 40.2886 8.1576 40.2336 8.23828L40.1741 8.31543L36.4739 12.4561L36.3274 12.6211L36.3489 12.8398L36.9094 18.3652C36.9227 18.4957 36.9014 18.6274 36.8479 18.7471C36.7943 18.8668 36.7099 18.9707 36.6038 19.0479C36.4977 19.1249 36.3728 19.1726 36.2424 19.1865C36.1447 19.1969 36.0461 19.1885 35.9524 19.1611L35.8606 19.127L30.7786 16.8867L30.5764 16.7979L30.3752 16.8867L25.2932 19.127C25.1732 19.1799 25.0409 19.2005 24.9104 19.1865C24.78 19.1726 24.6552 19.1249 24.5491 19.0479C24.443 18.9707 24.3595 18.8668 24.3059 18.7471C24.2657 18.6572 24.2433 18.5607 24.2405 18.4629L24.2444 18.3652L24.804 12.8398L24.8264 12.6211L24.6799 12.4561L20.9797 8.31641L20.9192 8.23926C20.8824 8.1854 20.853 8.12695 20.8313 8.06543L20.8049 7.9707C20.7847 7.87451 20.7832 7.77573 20.801 7.67969L20.8254 7.58496C20.8558 7.49132 20.9036 7.40457 20.967 7.33008L21.0354 7.25977C21.1084 7.19384 21.1934 7.14331 21.2854 7.11035L21.3792 7.08301L26.8079 5.90723L27.0227 5.86035L27.134 5.66992L29.929 0.87207C29.9784 0.787322 30.0439 0.713502 30.1213 0.654297L30.2034 0.599609C30.2885 0.550759 30.3821 0.51957 30.4788 0.506836L30.5764 0.5Z" fill="#ECE62F" stroke="black"/>
<mask id="path-4-inside-2_261_92" fill="white">
<path d="M52.1696 21.0106L52.1586 21.0126L52.0876 21.0476L52.0676 21.0516L52.0536 21.0476L51.9826 21.0126C51.972 21.0093 51.964 21.011 51.9586 21.0176L51.9546 21.0276L51.9376 21.4556L51.9426 21.4756L51.9526 21.4886L52.0566 21.5626L52.0716 21.5666L52.0836 21.5626L52.1876 21.4886L52.1996 21.4726L52.2036 21.4556L52.1866 21.0286C52.184 21.018 52.1783 21.012 52.1696 21.0106ZM52.4346 20.8976L52.4216 20.8996L52.2366 20.9926L52.2266 21.0026L52.2236 21.0136L52.2416 21.4436L52.2466 21.4556L52.2546 21.4626L52.4556 21.5556C52.4683 21.559 52.478 21.5563 52.4846 21.5476L52.4886 21.5336L52.4546 20.9196C52.4513 20.9076 52.4446 20.9003 52.4346 20.8976ZM51.7196 20.8996C51.7152 20.897 51.71 20.8961 51.7049 20.8972C51.6999 20.8983 51.6955 20.9013 51.6926 20.9056L51.6866 20.9196L51.6526 21.5336C51.6533 21.5456 51.659 21.5536 51.6696 21.5576L51.6846 21.5556L51.8856 21.4626L51.8956 21.4546L51.8996 21.4436L51.9166 21.0136L51.9136 21.0016L51.9036 20.9916L51.7196 20.8996Z"/>
</mask>
<path d="M52.1696 21.0106L52.3217 20.0223L52.1558 19.9967L51.9907 20.0268L52.1696 21.0106ZM52.1586 21.0126L51.9797 20.0288L51.842 20.0538L51.7165 20.1157L52.1586 21.0126ZM52.0876 21.0476L52.2838 22.0282L52.4123 22.0025L52.5298 21.9446L52.0876 21.0476ZM52.0676 21.0516L51.7929 22.0132L52.026 22.0797L52.2638 22.0322L52.0676 21.0516ZM52.0536 21.0476L51.6115 21.9446L51.6923 21.9844L51.7789 22.0092L52.0536 21.0476ZM51.9826 21.0126L52.4248 20.1157L52.3551 20.0813L52.2809 20.0581L51.9826 21.0126ZM51.9586 21.0176L51.1778 20.3929L51.0852 20.5087L51.0302 20.6463L51.9586 21.0176ZM51.9546 21.0276L51.0262 20.6563L50.9623 20.816L50.9554 20.9879L51.9546 21.0276ZM51.9376 21.4556L50.9384 21.4159L50.9327 21.5591L50.9675 21.6982L51.9376 21.4556ZM51.9426 21.4756L50.9725 21.7182L51.023 21.9202L51.15 22.0853L51.9426 21.4756ZM51.9526 21.4886L51.16 22.0983L51.2511 22.2168L51.3729 22.3034L51.9526 21.4886ZM52.0566 21.5626L51.4769 22.3774L51.6243 22.4823L51.799 22.5289L52.0566 21.5626ZM52.0716 21.5666L51.814 22.5329L52.1036 22.6101L52.3879 22.5153L52.0716 21.5666ZM52.0836 21.5626L52.3999 22.5113L52.5416 22.4641L52.6634 22.3774L52.0836 21.5626ZM52.1876 21.4886L52.7674 22.3034L52.8943 22.2132L52.9877 22.0886L52.1876 21.4886ZM52.1996 21.4726L52.9997 22.0726L53.1252 21.9053L53.1731 21.7016L52.1996 21.4726ZM52.2036 21.4556L53.1771 21.6846L53.2083 21.552L53.2029 21.4158L52.2036 21.4556ZM52.1866 21.0286L53.1859 20.9888L53.1818 20.886L53.1568 20.7861L52.1866 21.0286ZM52.4346 20.8976L52.6923 19.9314L52.4898 19.8774L52.2827 19.9092L52.4346 20.8976ZM52.4216 20.8996L52.2697 19.9112L52.1136 19.9352L51.9725 20.0062L52.4216 20.8996ZM52.2366 20.9926L51.7875 20.0992L51.6435 20.1716L51.5295 20.2855L52.2366 20.9926ZM52.2266 21.0026L51.5195 20.2955L51.3317 20.4833L51.2619 20.7396L52.2266 21.0026ZM52.2236 21.0136L51.2589 20.7506L51.218 20.9003L51.2245 21.0554L52.2236 21.0136ZM52.2416 21.4436L51.2425 21.4854L51.25 21.6636L51.3186 21.8283L52.2416 21.4436ZM52.2466 21.4556L51.3236 21.8403L51.4131 22.055L51.5882 22.2082L52.2466 21.4556ZM52.2546 21.4626L51.5962 22.2152L51.7043 22.3098L51.8347 22.3702L52.2546 21.4626ZM52.4556 21.5556L52.0357 22.4632L52.1158 22.5002L52.2012 22.5227L52.4556 21.5556ZM52.4846 21.5476L53.2773 22.1573L53.3937 22.006L53.4462 21.8223L52.4846 21.5476ZM52.4886 21.5336L53.4502 21.8083L53.4964 21.6464L53.4871 21.4783L52.4886 21.5336ZM52.4546 20.9196L53.4531 20.8643L53.4471 20.7563L53.4182 20.652L52.4546 20.9196ZM51.7196 20.8996L51.2014 21.7548L51.2361 21.7759L51.2724 21.794L51.7196 20.8996ZM51.6926 20.9056L50.8609 20.3504L50.8098 20.427L50.7735 20.5117L51.6926 20.9056ZM51.6866 20.9196L50.7675 20.5257L50.6979 20.688L50.6882 20.8643L51.6866 20.9196ZM51.6526 21.5336L50.6542 21.4783L50.6511 21.5337L50.6542 21.5891L51.6526 21.5336ZM51.6696 21.5576L51.3185 22.494L51.5533 22.582L51.8019 22.5488L51.6696 21.5576ZM51.6846 21.5556L51.8169 22.5468L51.9671 22.5268L52.1046 22.4632L51.6846 21.5556ZM51.8856 21.4626L52.3056 22.3702L52.4156 22.3193L52.5103 22.2435L51.8856 21.4626ZM51.8956 21.4546L52.5203 22.2355L52.7395 22.0602L52.8354 21.7964L51.8956 21.4546ZM51.8996 21.4436L52.8394 21.7854L52.8927 21.6389L52.8989 21.4831L51.8996 21.4436ZM51.9166 21.0136L52.9159 21.0531L52.9215 20.91L52.8868 20.7711L51.9166 21.0136ZM51.9136 21.0016L52.8838 20.7591L52.8166 20.4904L52.6208 20.2945L51.9136 21.0016ZM51.9036 20.9916L52.6108 20.2845L52.496 20.1698L52.3509 20.0972L51.9036 20.9916ZM52.1696 21.0106L51.9907 20.0268L51.9797 20.0288L52.1586 21.0126L52.3376 21.9965L52.3486 21.9945L52.1696 21.0106ZM52.1586 21.0126L51.7165 20.1157L51.6455 20.1507L52.0876 21.0476L52.5298 21.9446L52.6008 21.9096L52.1586 21.0126ZM52.0876 21.0476L51.8915 20.067L51.8715 20.071L52.0676 21.0516L52.2638 22.0322L52.2838 22.0282L52.0876 21.0476ZM52.0676 21.0516L52.3424 20.0901L52.3284 20.0861L52.0536 21.0476L51.7789 22.0092L51.7929 22.0132L52.0676 21.0516ZM52.0536 21.0476L52.4958 20.1507L52.4248 20.1157L51.9826 21.0126L51.5405 21.9096L51.6115 21.9446L52.0536 21.0476ZM51.9826 21.0126L52.2809 20.0581C52.1701 20.0235 51.9856 19.9864 51.7647 20.0324C51.5223 20.0829 51.3187 20.2168 51.1778 20.3929L51.9586 21.0176L52.7395 21.6423C52.6039 21.8118 52.407 21.9415 52.1726 21.9904C51.9597 22.0347 51.7845 21.9984 51.6844 21.9671L51.9826 21.0126ZM51.9586 21.0176L51.0302 20.6463L51.0262 20.6563L51.9546 21.0276L52.8831 21.399L52.8871 21.389L51.9586 21.0176ZM51.9546 21.0276L50.9554 20.9879L50.9384 21.4159L51.9376 21.4556L52.9369 21.4953L52.9539 21.0673L51.9546 21.0276ZM51.9376 21.4556L50.9675 21.6982L50.9725 21.7182L51.9426 21.4756L52.9128 21.2331L52.9078 21.2131L51.9376 21.4556ZM51.9426 21.4756L51.15 22.0853L51.16 22.0983L51.9526 21.4886L52.7453 20.8789L52.7353 20.8659L51.9426 21.4756ZM51.9526 21.4886L51.3729 22.3034L51.4769 22.3774L52.0566 21.5626L52.6364 20.7478L52.5324 20.6738L51.9526 21.4886ZM52.0566 21.5626L51.799 22.5289L51.814 22.5329L52.0716 21.5666L52.3293 20.6004L52.3143 20.5964L52.0566 21.5626ZM52.0716 21.5666L52.3879 22.5153L52.3999 22.5113L52.0836 21.5626L51.7674 20.6139L51.7554 20.6179L52.0716 21.5666ZM52.0836 21.5626L52.6634 22.3774L52.7674 22.3034L52.1876 21.4886L51.6079 20.6738L51.5039 20.7478L52.0836 21.5626ZM52.1876 21.4886L52.9877 22.0886L52.9997 22.0726L52.1996 21.4726L51.3996 20.8726L51.3876 20.8886L52.1876 21.4886ZM52.1996 21.4726L53.1731 21.7016L53.1771 21.6846L52.2036 21.4556L51.2302 21.2266L51.2262 21.2436L52.1996 21.4726ZM52.2036 21.4556L53.2029 21.4158L53.1859 20.9888L52.1866 21.0286L51.1874 21.0684L51.2044 21.4954L52.2036 21.4556ZM52.1866 21.0286L53.1568 20.7861C53.1272 20.6677 53.0608 20.4919 52.9074 20.3295C52.7419 20.1543 52.5312 20.0545 52.3217 20.0223L52.1696 21.0106L52.0176 21.999C51.8168 21.9681 51.6132 21.872 51.4534 21.7027C51.3057 21.5463 51.2434 21.3789 51.2165 21.2712L52.1866 21.0286ZM52.4346 20.8976L52.2827 19.9092L52.2697 19.9112L52.4216 20.8996L52.5736 21.888L52.5866 21.886L52.4346 20.8976ZM52.4216 20.8996L51.9725 20.0062L51.7875 20.0992L52.2366 20.9926L52.6858 21.8861L52.8708 21.7931L52.4216 20.8996ZM52.2366 20.9926L51.5295 20.2855L51.5195 20.2955L52.2266 21.0026L52.9338 21.7097L52.9438 21.6997L52.2366 20.9926ZM52.2266 21.0026L51.2619 20.7396L51.2589 20.7506L52.2236 21.0136L53.1884 21.2767L53.1914 21.2657L52.2266 21.0026ZM52.2236 21.0136L51.2245 21.0554L51.2425 21.4854L52.2416 21.4436L53.2408 21.4018L53.2228 20.9718L52.2236 21.0136ZM52.2416 21.4436L51.3186 21.8283L51.3236 21.8403L52.2466 21.4556L53.1697 21.071L53.1647 21.059L52.2416 21.4436ZM52.2466 21.4556L51.5882 22.2082L51.5962 22.2152L52.2546 21.4626L52.9131 20.71L52.9051 20.703L52.2466 21.4556ZM52.2546 21.4626L51.8347 22.3702L52.0357 22.4632L52.4556 21.5556L52.8756 20.6481L52.6746 20.5551L52.2546 21.4626ZM52.4556 21.5556L52.2012 22.5227C52.3273 22.5559 52.5189 22.5806 52.7383 22.5201C52.9717 22.4557 53.1542 22.3174 53.2773 22.1573L52.4846 21.5476L51.692 20.9379C51.8085 20.7865 51.9828 20.6538 52.2065 20.5921C52.4163 20.5343 52.5967 20.5587 52.7101 20.5885L52.4556 21.5556ZM52.4846 21.5476L53.4462 21.8223L53.4502 21.8083L52.4886 21.5336L51.5271 21.2589L51.5231 21.2729L52.4846 21.5476ZM52.4886 21.5336L53.4871 21.4783L53.4531 20.8643L52.4546 20.9196L51.4562 20.9749L51.4902 21.5889L52.4886 21.5336ZM52.4546 20.9196L53.4182 20.652C53.3426 20.3801 53.1194 20.0453 52.6923 19.9314L52.4346 20.8976L52.177 21.8639C52.005 21.818 51.839 21.7228 51.7072 21.5778C51.5819 21.44 51.5208 21.2942 51.4911 21.1873L52.4546 20.9196ZM51.7196 20.8996L52.2379 20.0444C52.0131 19.9081 51.7444 19.864 51.488 19.921L51.7049 20.8972L51.9219 21.8734C51.6755 21.9281 51.4174 21.8858 51.2014 21.7548L51.7196 20.8996ZM51.7049 20.8972L51.488 19.921C51.2315 19.978 51.0069 20.1318 50.8609 20.3504L51.6926 20.9056L52.5244 21.4608C52.3841 21.6709 52.1683 21.8186 51.9219 21.8734L51.7049 20.8972ZM51.6926 20.9056L50.7735 20.5117L50.7675 20.5257L51.6866 20.9196L52.6058 21.3136L52.6118 21.2996L51.6926 20.9056ZM51.6866 20.9196L50.6882 20.8643L50.6542 21.4783L51.6526 21.5336L52.6511 21.5889L52.6851 20.9749L51.6866 20.9196ZM51.6526 21.5336L50.6542 21.5891C50.6626 21.7404 50.7075 21.9377 50.8414 22.1266C50.9777 22.3191 51.157 22.4334 51.3185 22.494L51.6696 21.5576L52.0208 20.6213C52.1716 20.6779 52.3428 20.7862 52.4734 20.9706C52.6016 21.1516 52.6434 21.3388 52.6511 21.4782L51.6526 21.5336ZM51.6696 21.5576L51.8019 22.5488L51.8169 22.5468L51.6846 21.5556L51.5524 20.5644L51.5374 20.5664L51.6696 21.5576ZM51.6846 21.5556L52.1046 22.4632L52.3056 22.3702L51.8856 21.4626L51.4657 20.5551L51.2647 20.6481L51.6846 21.5556ZM51.8856 21.4626L52.5103 22.2435L52.5203 22.2355L51.8956 21.4546L51.271 20.6737L51.261 20.6817L51.8856 21.4626ZM51.8956 21.4546L52.8354 21.7964L52.8394 21.7854L51.8996 21.4436L50.9599 21.1019L50.9559 21.1129L51.8956 21.4546ZM51.8996 21.4436L52.8989 21.4831L52.9159 21.0531L51.9166 21.0136L50.9174 20.9741L50.9004 21.4041L51.8996 21.4436ZM51.9166 21.0136L52.8868 20.7711L52.8838 20.7591L51.9136 21.0016L50.9435 21.2442L50.9465 21.2562L51.9166 21.0136ZM51.9136 21.0016L52.6208 20.2945L52.6108 20.2845L51.9036 20.9916L51.1965 21.6987L51.2065 21.7087L51.9136 21.0016ZM51.9036 20.9916L52.3509 20.0972L52.1669 20.0052L51.7196 20.8996L51.2724 21.794L51.4564 21.886L51.9036 20.9916Z" fill="black" mask="url(#path-4-inside-2_261_92)"/>
<path d="M51.5764 0.5C51.6748 0.5 51.7722 0.519368 51.8625 0.556641L51.9504 0.599609C52.0357 0.648618 52.1104 0.71371 52.1702 0.791016L52.2249 0.87207L55.0198 5.66992L55.1301 5.86035L55.3459 5.90723L60.7737 7.08301C60.9017 7.11086 61.0203 7.17188 61.1174 7.25977C61.2146 7.34771 61.2869 7.46027 61.3274 7.58496C61.3678 7.70954 61.3749 7.84255 61.3479 7.9707C61.3276 8.06686 61.2886 8.1576 61.2336 8.23828L61.1741 8.31543L57.4739 12.4561L57.3274 12.6211L57.3489 12.8398L57.9094 18.3652C57.9227 18.4957 57.9014 18.6274 57.8479 18.7471C57.7943 18.8668 57.7099 18.9707 57.6038 19.0479C57.4977 19.1249 57.3728 19.1726 57.2424 19.1865C57.1447 19.1969 57.0461 19.1885 56.9524 19.1611L56.8606 19.127L51.7786 16.8867L51.5764 16.7979L51.3752 16.8867L46.2932 19.127C46.1732 19.1799 46.0409 19.2005 45.9104 19.1865C45.78 19.1726 45.6552 19.1249 45.5491 19.0479C45.443 18.9707 45.3595 18.8668 45.3059 18.7471C45.2657 18.6572 45.2433 18.5607 45.2405 18.4629L45.2444 18.3652L45.804 12.8398L45.8264 12.6211L45.6799 12.4561L41.9797 8.31641L41.9192 8.23926C41.8824 8.1854 41.853 8.12695 41.8313 8.06543L41.8049 7.9707C41.7847 7.87451 41.7832 7.77573 41.801 7.67969L41.8254 7.58496C41.8558 7.49132 41.9036 7.40457 41.967 7.33008L42.0354 7.25977C42.1084 7.19384 42.1934 7.14331 42.2854 7.11035L42.3792 7.08301L47.8079 5.90723L48.0227 5.86035L48.134 5.66992L50.929 0.87207C50.9784 0.787322 51.0439 0.713502 51.1213 0.654297L51.2034 0.599609C51.2885 0.550759 51.3821 0.51957 51.4788 0.506836L51.5764 0.5Z" fill="#ECE62F" stroke="black"/>
<mask id="path-7-inside-3_261_92" fill="white">
<path d="M73.1696 21.0106L73.1586 21.0126L73.0876 21.0476L73.0676 21.0516L73.0536 21.0476L72.9826 21.0126C72.972 21.0093 72.964 21.011 72.9586 21.0176L72.9546 21.0276L72.9376 21.4556L72.9426 21.4756L72.9526 21.4886L73.0566 21.5626L73.0716 21.5666L73.0836 21.5626L73.1876 21.4886L73.1996 21.4726L73.2036 21.4556L73.1866 21.0286C73.184 21.018 73.1783 21.012 73.1696 21.0106ZM73.4346 20.8976L73.4216 20.8996L73.2366 20.9926L73.2266 21.0026L73.2236 21.0136L73.2416 21.4436L73.2466 21.4556L73.2546 21.4626L73.4556 21.5556C73.4683 21.559 73.478 21.5563 73.4846 21.5476L73.4886 21.5336L73.4546 20.9196C73.4513 20.9076 73.4446 20.9003 73.4346 20.8976ZM72.7196 20.8996C72.7152 20.897 72.71 20.8961 72.7049 20.8972C72.6999 20.8983 72.6955 20.9013 72.6926 20.9056L72.6866 20.9196L72.6526 21.5336C72.6533 21.5456 72.659 21.5536 72.6696 21.5576L72.6846 21.5556L72.8856 21.4626L72.8956 21.4546L72.8996 21.4436L72.9166 21.0136L72.9136 21.0016L72.9036 20.9916L72.7196 20.8996Z"/>
</mask>
<path d="M73.1696 21.0106L73.3217 20.0223L73.1558 19.9967L72.9907 20.0268L73.1696 21.0106ZM73.1586 21.0126L72.9797 20.0288L72.842 20.0538L72.7165 20.1157L73.1586 21.0126ZM73.0876 21.0476L73.2838 22.0282L73.4123 22.0025L73.5298 21.9446L73.0876 21.0476ZM73.0676 21.0516L72.7929 22.0132L73.026 22.0797L73.2638 22.0322L73.0676 21.0516ZM73.0536 21.0476L72.6115 21.9446L72.6923 21.9844L72.7789 22.0092L73.0536 21.0476ZM72.9826 21.0126L73.4248 20.1157L73.3551 20.0813L73.2809 20.0581L72.9826 21.0126ZM72.9586 21.0176L72.1778 20.3929L72.0852 20.5087L72.0302 20.6463L72.9586 21.0176ZM72.9546 21.0276L72.0262 20.6563L71.9623 20.816L71.9554 20.9879L72.9546 21.0276ZM72.9376 21.4556L71.9384 21.4159L71.9327 21.5591L71.9675 21.6982L72.9376 21.4556ZM72.9426 21.4756L71.9725 21.7182L72.023 21.9202L72.15 22.0853L72.9426 21.4756ZM72.9526 21.4886L72.16 22.0983L72.2511 22.2168L72.3729 22.3034L72.9526 21.4886ZM73.0566 21.5626L72.4769 22.3774L72.6243 22.4823L72.799 22.5289L73.0566 21.5626ZM73.0716 21.5666L72.814 22.5329L73.1036 22.6101L73.3879 22.5153L73.0716 21.5666ZM73.0836 21.5626L73.3999 22.5113L73.5416 22.4641L73.6634 22.3774L73.0836 21.5626ZM73.1876 21.4886L73.7674 22.3034L73.8943 22.2132L73.9877 22.0886L73.1876 21.4886ZM73.1996 21.4726L73.9997 22.0726L74.1252 21.9053L74.1731 21.7016L73.1996 21.4726ZM73.2036 21.4556L74.1771 21.6846L74.2083 21.552L74.2029 21.4158L73.2036 21.4556ZM73.1866 21.0286L74.1859 20.9888L74.1818 20.886L74.1568 20.7861L73.1866 21.0286ZM73.4346 20.8976L73.6923 19.9314L73.4898 19.8774L73.2827 19.9092L73.4346 20.8976ZM73.4216 20.8996L73.2697 19.9112L73.1136 19.9352L72.9725 20.0062L73.4216 20.8996ZM73.2366 20.9926L72.7875 20.0992L72.6435 20.1716L72.5295 20.2855L73.2366 20.9926ZM73.2266 21.0026L72.5195 20.2955L72.3317 20.4833L72.2619 20.7396L73.2266 21.0026ZM73.2236 21.0136L72.2589 20.7506L72.218 20.9003L72.2245 21.0554L73.2236 21.0136ZM73.2416 21.4436L72.2425 21.4854L72.25 21.6636L72.3186 21.8283L73.2416 21.4436ZM73.2466 21.4556L72.3236 21.8403L72.4131 22.055L72.5882 22.2082L73.2466 21.4556ZM73.2546 21.4626L72.5962 22.2152L72.7043 22.3098L72.8347 22.3702L73.2546 21.4626ZM73.4556 21.5556L73.0357 22.4632L73.1158 22.5002L73.2012 22.5227L73.4556 21.5556ZM73.4846 21.5476L74.2773 22.1573L74.3937 22.006L74.4462 21.8223L73.4846 21.5476ZM73.4886 21.5336L74.4502 21.8083L74.4964 21.6464L74.4871 21.4783L73.4886 21.5336ZM73.4546 20.9196L74.4531 20.8643L74.4471 20.7563L74.4182 20.652L73.4546 20.9196ZM72.7196 20.8996L72.2014 21.7548L72.2361 21.7759L72.2724 21.794L72.7196 20.8996ZM72.6926 20.9056L71.8609 20.3504L71.8098 20.427L71.7735 20.5117L72.6926 20.9056ZM72.6866 20.9196L71.7675 20.5257L71.6979 20.688L71.6882 20.8643L72.6866 20.9196ZM72.6526 21.5336L71.6542 21.4783L71.6511 21.5337L71.6542 21.5891L72.6526 21.5336ZM72.6696 21.5576L72.3185 22.494L72.5533 22.582L72.8019 22.5488L72.6696 21.5576ZM72.6846 21.5556L72.8169 22.5468L72.9671 22.5268L73.1046 22.4632L72.6846 21.5556ZM72.8856 21.4626L73.3056 22.3702L73.4156 22.3193L73.5103 22.2435L72.8856 21.4626ZM72.8956 21.4546L73.5203 22.2355L73.7395 22.0602L73.8354 21.7964L72.8956 21.4546ZM72.8996 21.4436L73.8394 21.7854L73.8927 21.6389L73.8989 21.4831L72.8996 21.4436ZM72.9166 21.0136L73.9159 21.0531L73.9215 20.91L73.8868 20.7711L72.9166 21.0136ZM72.9136 21.0016L73.8838 20.7591L73.8166 20.4904L73.6208 20.2945L72.9136 21.0016ZM72.9036 20.9916L73.6108 20.2845L73.496 20.1698L73.3509 20.0972L72.9036 20.9916ZM73.1696 21.0106L72.9907 20.0268L72.9797 20.0288L73.1586 21.0126L73.3376 21.9965L73.3486 21.9945L73.1696 21.0106ZM73.1586 21.0126L72.7165 20.1157L72.6455 20.1507L73.0876 21.0476L73.5298 21.9446L73.6008 21.9096L73.1586 21.0126ZM73.0876 21.0476L72.8915 20.067L72.8715 20.071L73.0676 21.0516L73.2638 22.0322L73.2838 22.0282L73.0876 21.0476ZM73.0676 21.0516L73.3424 20.0901L73.3284 20.0861L73.0536 21.0476L72.7789 22.0092L72.7929 22.0132L73.0676 21.0516ZM73.0536 21.0476L73.4958 20.1507L73.4248 20.1157L72.9826 21.0126L72.5405 21.9096L72.6115 21.9446L73.0536 21.0476ZM72.9826 21.0126L73.2809 20.0581C73.1701 20.0235 72.9856 19.9864 72.7647 20.0324C72.5223 20.0829 72.3187 20.2168 72.1778 20.3929L72.9586 21.0176L73.7395 21.6423C73.6039 21.8118 73.407 21.9415 73.1726 21.9904C72.9597 22.0347 72.7845 21.9984 72.6844 21.9671L72.9826 21.0126ZM72.9586 21.0176L72.0302 20.6463L72.0262 20.6563L72.9546 21.0276L73.8831 21.399L73.8871 21.389L72.9586 21.0176ZM72.9546 21.0276L71.9554 20.9879L71.9384 21.4159L72.9376 21.4556L73.9369 21.4953L73.9539 21.0673L72.9546 21.0276ZM72.9376 21.4556L71.9675 21.6982L71.9725 21.7182L72.9426 21.4756L73.9128 21.2331L73.9078 21.2131L72.9376 21.4556ZM72.9426 21.4756L72.15 22.0853L72.16 22.0983L72.9526 21.4886L73.7453 20.8789L73.7353 20.8659L72.9426 21.4756ZM72.9526 21.4886L72.3729 22.3034L72.4769 22.3774L73.0566 21.5626L73.6364 20.7478L73.5324 20.6738L72.9526 21.4886ZM73.0566 21.5626L72.799 22.5289L72.814 22.5329L73.0716 21.5666L73.3293 20.6004L73.3143 20.5964L73.0566 21.5626ZM73.0716 21.5666L73.3879 22.5153L73.3999 22.5113L73.0836 21.5626L72.7674 20.6139L72.7554 20.6179L73.0716 21.5666ZM73.0836 21.5626L73.6634 22.3774L73.7674 22.3034L73.1876 21.4886L72.6079 20.6738L72.5039 20.7478L73.0836 21.5626ZM73.1876 21.4886L73.9877 22.0886L73.9997 22.0726L73.1996 21.4726L72.3996 20.8726L72.3876 20.8886L73.1876 21.4886ZM73.1996 21.4726L74.1731 21.7016L74.1771 21.6846L73.2036 21.4556L72.2302 21.2266L72.2262 21.2436L73.1996 21.4726ZM73.2036 21.4556L74.2029 21.4158L74.1859 20.9888L73.1866 21.0286L72.1874 21.0684L72.2044 21.4954L73.2036 21.4556ZM73.1866 21.0286L74.1568 20.7861C74.1272 20.6677 74.0608 20.4919 73.9074 20.3295C73.7419 20.1543 73.5312 20.0545 73.3217 20.0223L73.1696 21.0106L73.0176 21.999C72.8168 21.9681 72.6132 21.872 72.4534 21.7027C72.3057 21.5463 72.2434 21.3789 72.2165 21.2712L73.1866 21.0286ZM73.4346 20.8976L73.2827 19.9092L73.2697 19.9112L73.4216 20.8996L73.5736 21.888L73.5866 21.886L73.4346 20.8976ZM73.4216 20.8996L72.9725 20.0062L72.7875 20.0992L73.2366 20.9926L73.6858 21.8861L73.8708 21.7931L73.4216 20.8996ZM73.2366 20.9926L72.5295 20.2855L72.5195 20.2955L73.2266 21.0026L73.9338 21.7097L73.9438 21.6997L73.2366 20.9926ZM73.2266 21.0026L72.2619 20.7396L72.2589 20.7506L73.2236 21.0136L74.1884 21.2767L74.1914 21.2657L73.2266 21.0026ZM73.2236 21.0136L72.2245 21.0554L72.2425 21.4854L73.2416 21.4436L74.2408 21.4018L74.2228 20.9718L73.2236 21.0136ZM73.2416 21.4436L72.3186 21.8283L72.3236 21.8403L73.2466 21.4556L74.1697 21.071L74.1647 21.059L73.2416 21.4436ZM73.2466 21.4556L72.5882 22.2082L72.5962 22.2152L73.2546 21.4626L73.9131 20.71L73.9051 20.703L73.2466 21.4556ZM73.2546 21.4626L72.8347 22.3702L73.0357 22.4632L73.4556 21.5556L73.8756 20.6481L73.6746 20.5551L73.2546 21.4626ZM73.4556 21.5556L73.2012 22.5227C73.3273 22.5559 73.5189 22.5806 73.7383 22.5201C73.9717 22.4557 74.1542 22.3174 74.2773 22.1573L73.4846 21.5476L72.692 20.9379C72.8085 20.7865 72.9828 20.6538 73.2065 20.5921C73.4163 20.5343 73.5967 20.5587 73.7101 20.5885L73.4556 21.5556ZM73.4846 21.5476L74.4462 21.8223L74.4502 21.8083L73.4886 21.5336L72.5271 21.2589L72.5231 21.2729L73.4846 21.5476ZM73.4886 21.5336L74.4871 21.4783L74.4531 20.8643L73.4546 20.9196L72.4562 20.9749L72.4902 21.5889L73.4886 21.5336ZM73.4546 20.9196L74.4182 20.652C74.3426 20.3801 74.1194 20.0453 73.6923 19.9314L73.4346 20.8976L73.177 21.8639C73.005 21.818 72.839 21.7228 72.7072 21.5778C72.5819 21.44 72.5208 21.2942 72.4911 21.1873L73.4546 20.9196ZM72.7196 20.8996L73.2379 20.0444C73.0131 19.9081 72.7444 19.864 72.488 19.921L72.7049 20.8972L72.9219 21.8734C72.6755 21.9281 72.4174 21.8858 72.2014 21.7548L72.7196 20.8996ZM72.7049 20.8972L72.488 19.921C72.2315 19.978 72.0069 20.1318 71.8609 20.3504L72.6926 20.9056L73.5244 21.4608C73.3841 21.6709 73.1683 21.8186 72.9219 21.8734L72.7049 20.8972ZM72.6926 20.9056L71.7735 20.5117L71.7675 20.5257L72.6866 20.9196L73.6058 21.3136L73.6118 21.2996L72.6926 20.9056ZM72.6866 20.9196L71.6882 20.8643L71.6542 21.4783L72.6526 21.5336L73.6511 21.5889L73.6851 20.9749L72.6866 20.9196ZM72.6526 21.5336L71.6542 21.5891C71.6626 21.7404 71.7075 21.9377 71.8414 22.1266C71.9777 22.3191 72.157 22.4334 72.3185 22.494L72.6696 21.5576L73.0208 20.6213C73.1716 20.6779 73.3428 20.7862 73.4734 20.9706C73.6016 21.1516 73.6434 21.3388 73.6511 21.4782L72.6526 21.5336ZM72.6696 21.5576L72.8019 22.5488L72.8169 22.5468L72.6846 21.5556L72.5524 20.5644L72.5374 20.5664L72.6696 21.5576ZM72.6846 21.5556L73.1046 22.4632L73.3056 22.3702L72.8856 21.4626L72.4657 20.5551L72.2647 20.6481L72.6846 21.5556ZM72.8856 21.4626L73.5103 22.2435L73.5203 22.2355L72.8956 21.4546L72.271 20.6737L72.261 20.6817L72.8856 21.4626ZM72.8956 21.4546L73.8354 21.7964L73.8394 21.7854L72.8996 21.4436L71.9599 21.1019L71.9559 21.1129L72.8956 21.4546ZM72.8996 21.4436L73.8989 21.4831L73.9159 21.0531L72.9166 21.0136L71.9174 20.9741L71.9004 21.4041L72.8996 21.4436ZM72.9166 21.0136L73.8868 20.7711L73.8838 20.7591L72.9136 21.0016L71.9435 21.2442L71.9465 21.2562L72.9166 21.0136ZM72.9136 21.0016L73.6208 20.2945L73.6108 20.2845L72.9036 20.9916L72.1965 21.6987L72.2065 21.7087L72.9136 21.0016ZM72.9036 20.9916L73.3509 20.0972L73.1669 20.0052L72.7196 20.8996L72.2724 21.794L72.4564 21.886L72.9036 20.9916Z" fill="black" mask="url(#path-7-inside-3_261_92)"/>
<path d="M72.5764 0.5C72.6748 0.5 72.7722 0.519368 72.8625 0.556641L72.9504 0.599609C73.0357 0.648618 73.1104 0.71371 73.1702 0.791016L73.2249 0.87207L76.0198 5.66992L76.1301 5.86035L76.3459 5.90723L81.7737 7.08301C81.9017 7.11086 82.0203 7.17188 82.1174 7.25977C82.2146 7.34771 82.2869 7.46027 82.3274 7.58496C82.3678 7.70954 82.3749 7.84255 82.3479 7.9707C82.3276 8.06686 82.2886 8.1576 82.2336 8.23828L82.1741 8.31543L78.4739 12.4561L78.3274 12.6211L78.3489 12.8398L78.9094 18.3652C78.9227 18.4957 78.9014 18.6274 78.8479 18.7471C78.7943 18.8668 78.7099 18.9707 78.6038 19.0479C78.4977 19.1249 78.3728 19.1726 78.2424 19.1865C78.1447 19.1969 78.0461 19.1885 77.9524 19.1611L77.8606 19.127L72.7786 16.8867L72.5764 16.7979L72.3752 16.8867L67.2932 19.127C67.1732 19.1799 67.0409 19.2005 66.9104 19.1865C66.78 19.1726 66.6552 19.1249 66.5491 19.0479C66.443 18.9707 66.3595 18.8668 66.3059 18.7471C66.2657 18.6572 66.2433 18.5607 66.2405 18.4629L66.2444 18.3652L66.804 12.8398L66.8264 12.6211L66.6799 12.4561L62.9797 8.31641L62.9192 8.23926C62.8824 8.1854 62.853 8.12695 62.8313 8.06543L62.8049 7.9707C62.7847 7.87451 62.7832 7.77573 62.801 7.67969L62.8254 7.58496C62.8558 7.49132 62.9036 7.40457 62.967 7.33008L63.0354 7.25977C63.1084 7.19384 63.1934 7.14331 63.2854 7.11035L63.3792 7.08301L68.8079 5.90723L69.0227 5.86035L69.134 5.66992L71.929 0.87207C71.9784 0.787322 72.0439 0.713502 72.1213 0.654297L72.2034 0.599609C72.2885 0.550759 72.3821 0.51957 72.4788 0.506836L72.5764 0.5Z" fill="#ECE62F" stroke="black"/>
<mask id="path-10-inside-4_261_92" fill="white">
<path d="M94.1696 21.0106L94.1586 21.0126L94.0876 21.0476L94.0676 21.0516L94.0536 21.0476L93.9826 21.0126C93.972 21.0093 93.964 21.011 93.9586 21.0176L93.9546 21.0276L93.9376 21.4556L93.9426 21.4756L93.9526 21.4886L94.0566 21.5626L94.0716 21.5666L94.0836 21.5626L94.1876 21.4886L94.1996 21.4726L94.2036 21.4556L94.1866 21.0286C94.184 21.018 94.1783 21.012 94.1696 21.0106ZM94.4346 20.8976L94.4216 20.8996L94.2366 20.9926L94.2266 21.0026L94.2236 21.0136L94.2416 21.4436L94.2466 21.4556L94.2546 21.4626L94.4556 21.5556C94.4683 21.559 94.478 21.5563 94.4846 21.5476L94.4886 21.5336L94.4546 20.9196C94.4513 20.9076 94.4446 20.9003 94.4346 20.8976ZM93.7196 20.8996C93.7152 20.897 93.71 20.8961 93.7049 20.8972C93.6999 20.8983 93.6955 20.9013 93.6926 20.9056L93.6866 20.9196L93.6526 21.5336C93.6533 21.5456 93.659 21.5536 93.6696 21.5576L93.6846 21.5556L93.8856 21.4626L93.8956 21.4546L93.8996 21.4436L93.9166 21.0136L93.9136 21.0016L93.9036 20.9916L93.7196 20.8996Z"/>
</mask>
<path d="M94.1696 21.0106L94.3217 20.0223L94.1558 19.9967L93.9907 20.0268L94.1696 21.0106ZM94.1586 21.0126L93.9797 20.0288L93.842 20.0538L93.7165 20.1157L94.1586 21.0126ZM94.0876 21.0476L94.2838 22.0282L94.4123 22.0025L94.5298 21.9446L94.0876 21.0476ZM94.0676 21.0516L93.7929 22.0132L94.026 22.0797L94.2638 22.0322L94.0676 21.0516ZM94.0536 21.0476L93.6115 21.9446L93.6923 21.9844L93.7789 22.0092L94.0536 21.0476ZM93.9826 21.0126L94.4248 20.1157L94.3551 20.0813L94.2809 20.0581L93.9826 21.0126ZM93.9586 21.0176L93.1778 20.3929L93.0852 20.5087L93.0302 20.6463L93.9586 21.0176ZM93.9546 21.0276L93.0262 20.6563L92.9623 20.816L92.9554 20.9879L93.9546 21.0276ZM93.9376 21.4556L92.9384 21.4159L92.9327 21.5591L92.9675 21.6982L93.9376 21.4556ZM93.9426 21.4756L92.9725 21.7182L93.023 21.9202L93.15 22.0853L93.9426 21.4756ZM93.9526 21.4886L93.16 22.0983L93.2511 22.2168L93.3729 22.3034L93.9526 21.4886ZM94.0566 21.5626L93.4769 22.3774L93.6243 22.4823L93.799 22.5289L94.0566 21.5626ZM94.0716 21.5666L93.814 22.5329L94.1036 22.6101L94.3879 22.5153L94.0716 21.5666ZM94.0836 21.5626L94.3999 22.5113L94.5416 22.4641L94.6634 22.3774L94.0836 21.5626ZM94.1876 21.4886L94.7674 22.3034L94.8943 22.2132L94.9877 22.0886L94.1876 21.4886ZM94.1996 21.4726L94.9997 22.0726L95.1252 21.9053L95.1731 21.7016L94.1996 21.4726ZM94.2036 21.4556L95.1771 21.6846L95.2083 21.552L95.2029 21.4158L94.2036 21.4556ZM94.1866 21.0286L95.1859 20.9888L95.1818 20.886L95.1568 20.7861L94.1866 21.0286ZM94.4346 20.8976L94.6923 19.9314L94.4898 19.8774L94.2827 19.9092L94.4346 20.8976ZM94.4216 20.8996L94.2697 19.9112L94.1136 19.9352L93.9725 20.0062L94.4216 20.8996ZM94.2366 20.9926L93.7875 20.0992L93.6435 20.1716L93.5295 20.2855L94.2366 20.9926ZM94.2266 21.0026L93.5195 20.2955L93.3317 20.4833L93.2619 20.7396L94.2266 21.0026ZM94.2236 21.0136L93.2589 20.7506L93.218 20.9003L93.2245 21.0554L94.2236 21.0136ZM94.2416 21.4436L93.2425 21.4854L93.25 21.6636L93.3186 21.8283L94.2416 21.4436ZM94.2466 21.4556L93.3236 21.8403L93.4131 22.055L93.5882 22.2082L94.2466 21.4556ZM94.2546 21.4626L93.5962 22.2152L93.7043 22.3098L93.8347 22.3702L94.2546 21.4626ZM94.4556 21.5556L94.0357 22.4632L94.1158 22.5002L94.2012 22.5227L94.4556 21.5556ZM94.4846 21.5476L95.2773 22.1573L95.3937 22.006L95.4462 21.8223L94.4846 21.5476ZM94.4886 21.5336L95.4502 21.8083L95.4964 21.6464L95.4871 21.4783L94.4886 21.5336ZM94.4546 20.9196L95.4531 20.8643L95.4471 20.7563L95.4182 20.652L94.4546 20.9196ZM93.7196 20.8996L93.2014 21.7548L93.2361 21.7759L93.2724 21.794L93.7196 20.8996ZM93.6926 20.9056L92.8609 20.3504L92.8098 20.427L92.7735 20.5117L93.6926 20.9056ZM93.6866 20.9196L92.7675 20.5257L92.6979 20.688L92.6882 20.8643L93.6866 20.9196ZM93.6526 21.5336L92.6542 21.4783L92.6511 21.5337L92.6542 21.5891L93.6526 21.5336ZM93.6696 21.5576L93.3185 22.494L93.5533 22.582L93.8019 22.5488L93.6696 21.5576ZM93.6846 21.5556L93.8169 22.5468L93.9671 22.5268L94.1046 22.4632L93.6846 21.5556ZM93.8856 21.4626L94.3056 22.3702L94.4156 22.3193L94.5103 22.2435L93.8856 21.4626ZM93.8956 21.4546L94.5203 22.2355L94.7395 22.0602L94.8354 21.7964L93.8956 21.4546ZM93.8996 21.4436L94.8394 21.7854L94.8927 21.6389L94.8989 21.4831L93.8996 21.4436ZM93.9166 21.0136L94.9159 21.0531L94.9215 20.91L94.8868 20.7711L93.9166 21.0136ZM93.9136 21.0016L94.8838 20.7591L94.8166 20.4904L94.6208 20.2945L93.9136 21.0016ZM93.9036 20.9916L94.6108 20.2845L94.496 20.1698L94.3509 20.0972L93.9036 20.9916ZM94.1696 21.0106L93.9907 20.0268L93.9797 20.0288L94.1586 21.0126L94.3376 21.9965L94.3486 21.9945L94.1696 21.0106ZM94.1586 21.0126L93.7165 20.1157L93.6455 20.1507L94.0876 21.0476L94.5298 21.9446L94.6008 21.9096L94.1586 21.0126ZM94.0876 21.0476L93.8915 20.067L93.8715 20.071L94.0676 21.0516L94.2638 22.0322L94.2838 22.0282L94.0876 21.0476ZM94.0676 21.0516L94.3424 20.0901L94.3284 20.0861L94.0536 21.0476L93.7789 22.0092L93.7929 22.0132L94.0676 21.0516ZM94.0536 21.0476L94.4958 20.1507L94.4248 20.1157L93.9826 21.0126L93.5405 21.9096L93.6115 21.9446L94.0536 21.0476ZM93.9826 21.0126L94.2809 20.0581C94.1701 20.0235 93.9856 19.9864 93.7647 20.0324C93.5223 20.0829 93.3187 20.2168 93.1778 20.3929L93.9586 21.0176L94.7395 21.6423C94.6039 21.8118 94.407 21.9415 94.1726 21.9904C93.9597 22.0347 93.7845 21.9984 93.6844 21.9671L93.9826 21.0126ZM93.9586 21.0176L93.0302 20.6463L93.0262 20.6563L93.9546 21.0276L94.8831 21.399L94.8871 21.389L93.9586 21.0176ZM93.9546 21.0276L92.9554 20.9879L92.9384 21.4159L93.9376 21.4556L94.9369 21.4953L94.9539 21.0673L93.9546 21.0276ZM93.9376 21.4556L92.9675 21.6982L92.9725 21.7182L93.9426 21.4756L94.9128 21.2331L94.9078 21.2131L93.9376 21.4556ZM93.9426 21.4756L93.15 22.0853L93.16 22.0983L93.9526 21.4886L94.7453 20.8789L94.7353 20.8659L93.9426 21.4756ZM93.9526 21.4886L93.3729 22.3034L93.4769 22.3774L94.0566 21.5626L94.6364 20.7478L94.5324 20.6738L93.9526 21.4886ZM94.0566 21.5626L93.799 22.5289L93.814 22.5329L94.0716 21.5666L94.3293 20.6004L94.3143 20.5964L94.0566 21.5626ZM94.0716 21.5666L94.3879 22.5153L94.3999 22.5113L94.0836 21.5626L93.7674 20.6139L93.7554 20.6179L94.0716 21.5666ZM94.0836 21.5626L94.6634 22.3774L94.7674 22.3034L94.1876 21.4886L93.6079 20.6738L93.5039 20.7478L94.0836 21.5626ZM94.1876 21.4886L94.9877 22.0886L94.9997 22.0726L94.1996 21.4726L93.3996 20.8726L93.3876 20.8886L94.1876 21.4886ZM94.1996 21.4726L95.1731 21.7016L95.1771 21.6846L94.2036 21.4556L93.2302 21.2266L93.2262 21.2436L94.1996 21.4726ZM94.2036 21.4556L95.2029 21.4158L95.1859 20.9888L94.1866 21.0286L93.1874 21.0684L93.2044 21.4954L94.2036 21.4556ZM94.1866 21.0286L95.1568 20.7861C95.1272 20.6677 95.0608 20.4919 94.9074 20.3295C94.7419 20.1543 94.5312 20.0545 94.3217 20.0223L94.1696 21.0106L94.0176 21.999C93.8168 21.9681 93.6132 21.872 93.4534 21.7027C93.3057 21.5463 93.2434 21.3789 93.2165 21.2712L94.1866 21.0286ZM94.4346 20.8976L94.2827 19.9092L94.2697 19.9112L94.4216 20.8996L94.5736 21.888L94.5866 21.886L94.4346 20.8976ZM94.4216 20.8996L93.9725 20.0062L93.7875 20.0992L94.2366 20.9926L94.6858 21.8861L94.8708 21.7931L94.4216 20.8996ZM94.2366 20.9926L93.5295 20.2855L93.5195 20.2955L94.2266 21.0026L94.9338 21.7097L94.9438 21.6997L94.2366 20.9926ZM94.2266 21.0026L93.2619 20.7396L93.2589 20.7506L94.2236 21.0136L95.1884 21.2767L95.1914 21.2657L94.2266 21.0026ZM94.2236 21.0136L93.2245 21.0554L93.2425 21.4854L94.2416 21.4436L95.2408 21.4018L95.2228 20.9718L94.2236 21.0136ZM94.2416 21.4436L93.3186 21.8283L93.3236 21.8403L94.2466 21.4556L95.1697 21.071L95.1647 21.059L94.2416 21.4436ZM94.2466 21.4556L93.5882 22.2082L93.5962 22.2152L94.2546 21.4626L94.9131 20.71L94.9051 20.703L94.2466 21.4556ZM94.2546 21.4626L93.8347 22.3702L94.0357 22.4632L94.4556 21.5556L94.8756 20.6481L94.6746 20.5551L94.2546 21.4626ZM94.4556 21.5556L94.2012 22.5227C94.3273 22.5559 94.5189 22.5806 94.7383 22.5201C94.9717 22.4557 95.1542 22.3174 95.2773 22.1573L94.4846 21.5476L93.692 20.9379C93.8085 20.7865 93.9828 20.6538 94.2065 20.5921C94.4163 20.5343 94.5967 20.5587 94.7101 20.5885L94.4556 21.5556ZM94.4846 21.5476L95.4462 21.8223L95.4502 21.8083L94.4886 21.5336L93.5271 21.2589L93.5231 21.2729L94.4846 21.5476ZM94.4886 21.5336L95.4871 21.4783L95.4531 20.8643L94.4546 20.9196L93.4562 20.9749L93.4902 21.5889L94.4886 21.5336ZM94.4546 20.9196L95.4182 20.652C95.3426 20.3801 95.1194 20.0453 94.6923 19.9314L94.4346 20.8976L94.177 21.8639C94.005 21.818 93.839 21.7228 93.7072 21.5778C93.5819 21.44 93.5208 21.2942 93.4911 21.1873L94.4546 20.9196ZM93.7196 20.8996L94.2379 20.0444C94.0131 19.9081 93.7444 19.864 93.488 19.921L93.7049 20.8972L93.9219 21.8734C93.6755 21.9281 93.4174 21.8858 93.2014 21.7548L93.7196 20.8996ZM93.7049 20.8972L93.488 19.921C93.2315 19.978 93.0069 20.1318 92.8609 20.3504L93.6926 20.9056L94.5244 21.4608C94.3841 21.6709 94.1683 21.8186 93.9219 21.8734L93.7049 20.8972ZM93.6926 20.9056L92.7735 20.5117L92.7675 20.5257L93.6866 20.9196L94.6058 21.3136L94.6118 21.2996L93.6926 20.9056ZM93.6866 20.9196L92.6882 20.8643L92.6542 21.4783L93.6526 21.5336L94.6511 21.5889L94.6851 20.9749L93.6866 20.9196ZM93.6526 21.5336L92.6542 21.5891C92.6626 21.7404 92.7075 21.9377 92.8414 22.1266C92.9777 22.3191 93.157 22.4334 93.3185 22.494L93.6696 21.5576L94.0208 20.6213C94.1716 20.6779 94.3428 20.7862 94.4734 20.9706C94.6016 21.1516 94.6434 21.3388 94.6511 21.4782L93.6526 21.5336ZM93.6696 21.5576L93.8019 22.5488L93.8169 22.5468L93.6846 21.5556L93.5524 20.5644L93.5374 20.5664L93.6696 21.5576ZM93.6846 21.5556L94.1046 22.4632L94.3056 22.3702L93.8856 21.4626L93.4657 20.5551L93.2647 20.6481L93.6846 21.5556ZM93.8856 21.4626L94.5103 22.2435L94.5203 22.2355L93.8956 21.4546L93.271 20.6737L93.261 20.6817L93.8856 21.4626ZM93.8956 21.4546L94.8354 21.7964L94.8394 21.7854L93.8996 21.4436L92.9599 21.1019L92.9559 21.1129L93.8956 21.4546ZM93.8996 21.4436L94.8989 21.4831L94.9159 21.0531L93.9166 21.0136L92.9174 20.9741L92.9004 21.4041L93.8996 21.4436ZM93.9166 21.0136L94.8868 20.7711L94.8838 20.7591L93.9136 21.0016L92.9435 21.2442L92.9465 21.2562L93.9166 21.0136ZM93.9136 21.0016L94.6208 20.2945L94.6108 20.2845L93.9036 20.9916L93.1965 21.6987L93.2065 21.7087L93.9136 21.0016ZM93.9036 20.9916L94.3509 20.0972L94.1669 20.0052L93.7196 20.8996L93.2724 21.794L93.4564 21.886L93.9036 20.9916Z" fill="black" mask="url(#path-10-inside-4_261_92)"/>
<path d="M93.5764 0.5C93.6748 0.5 93.7722 0.519368 93.8625 0.556641L93.9504 0.599609C94.0357 0.648618 94.1104 0.71371 94.1702 0.791016L94.2249 0.87207L97.0198 5.66992L97.1301 5.86035L97.3459 5.90723L102.774 7.08301C102.902 7.11086 103.02 7.17188 103.117 7.25977C103.215 7.34771 103.287 7.46027 103.327 7.58496C103.368 7.70954 103.375 7.84255 103.348 7.9707C103.328 8.06686 103.289 8.1576 103.234 8.23828L103.174 8.31543L99.4739 12.4561L99.3274 12.6211L99.3489 12.8398L99.9094 18.3652C99.9227 18.4957 99.9014 18.6274 99.8479 18.7471C99.7943 18.8668 99.7099 18.9707 99.6038 19.0479C99.4977 19.1249 99.3728 19.1726 99.2424 19.1865C99.1447 19.1969 99.0461 19.1885 98.9524 19.1611L98.8606 19.127L93.7786 16.8867L93.5764 16.7979L93.3752 16.8867L88.2932 19.127C88.1732 19.1799 88.0409 19.2005 87.9104 19.1865C87.78 19.1726 87.6552 19.1249 87.5491 19.0479C87.443 18.9707 87.3595 18.8668 87.3059 18.7471C87.2657 18.6572 87.2433 18.5607 87.2405 18.4629L87.2444 18.3652L87.804 12.8398L87.8264 12.6211L87.6799 12.4561L83.9797 8.31641L83.9192 8.23926C83.8824 8.1854 83.853 8.12695 83.8313 8.06543L83.8049 7.9707C83.7847 7.87451 83.7832 7.77573 83.801 7.67969L83.8254 7.58496C83.8558 7.49132 83.9036 7.40457 83.967 7.33008L84.0354 7.25977C84.1084 7.19384 84.1934 7.14331 84.2854 7.11035L84.3792 7.08301L89.8079 5.90723L90.0227 5.86035L90.134 5.66992L92.929 0.87207C92.9784 0.787322 93.0439 0.713502 93.1213 0.654297L93.2034 0.599609C93.2885 0.550759 93.3821 0.51957 93.4788 0.506836L93.5764 0.5Z" fill="#ECE62F" stroke="black"/>
<mask id="path-13-inside-5_261_92" fill="white">
<path d="M10.8813 21.2579L10.8703 21.2599L10.7993 21.2949L10.7793 21.2989L10.7653 21.2949L10.6943 21.2599C10.6837 21.2566 10.6757 21.2583 10.6703 21.2649L10.6663 21.2749L10.6493 21.7029L10.6543 21.7229L10.6643 21.7359L10.7683 21.8099L10.7833 21.8139L10.7953 21.8099L10.8993 21.7359L10.9113 21.7199L10.9153 21.7029L10.8983 21.2759C10.8957 21.2653 10.89 21.2593 10.8813 21.2579ZM11.1463 21.1449L11.1333 21.1469L10.9483 21.2399L10.9383 21.2499L10.9353 21.2609L10.9533 21.6909L10.9583 21.7029L10.9663 21.7099L11.1673 21.8029C11.18 21.8063 11.1897 21.8036 11.1963 21.7949L11.2003 21.7809L11.1663 21.1669C11.163 21.1549 11.1563 21.1476 11.1463 21.1449ZM10.4313 21.1469C10.4269 21.1443 10.4216 21.1434 10.4166 21.1445C10.4116 21.1456 10.4072 21.1487 10.4043 21.1529L10.3983 21.1669L10.3643 21.7809C10.365 21.7929 10.3707 21.8009 10.3813 21.8049L10.3963 21.8029L10.5973 21.7099L10.6073 21.7019L10.6113 21.6909L10.6283 21.2609L10.6253 21.2489L10.6153 21.2389L10.4313 21.1469Z"/>
</mask>
<path d="M10.8813 21.2579L11.0334 20.2696L10.8675 20.244L10.7024 20.2741L10.8813 21.2579ZM10.8703 21.2599L10.6914 20.2761L10.5537 20.3011L10.4282 20.363L10.8703 21.2599ZM10.7993 21.2949L10.9954 22.2755L11.1239 22.2498L11.2415 22.1919L10.7993 21.2949ZM10.7793 21.2989L10.5046 22.2605L10.7377 22.3271L10.9754 22.2795L10.7793 21.2989ZM10.7653 21.2949L10.3232 22.1919L10.404 22.2317L10.4906 22.2565L10.7653 21.2949ZM10.6943 21.2599L11.1365 20.363L11.0668 20.3286L10.9926 20.3055L10.6943 21.2599ZM10.6703 21.2649L9.88945 20.6402L9.79687 20.756L9.74183 20.8936L10.6703 21.2649ZM10.6663 21.2749L9.73783 20.9036L9.67394 21.0633L9.66711 21.2352L10.6663 21.2749ZM10.6493 21.7029L9.65011 21.6632L9.64442 21.8064L9.67918 21.9455L10.6493 21.7029ZM10.6543 21.7229L9.68418 21.9655L9.73469 22.1675L9.86169 22.3326L10.6543 21.7229ZM10.6643 21.7359L9.87169 22.3456L9.9628 22.4641L10.0846 22.5507L10.6643 21.7359ZM10.7683 21.8099L10.1886 22.6247L10.3359 22.7296L10.5107 22.7762L10.7683 21.8099ZM10.7833 21.8139L10.5257 22.7802L10.8152 22.8574L11.0995 22.7626L10.7833 21.8139ZM10.7953 21.8099L11.1115 22.7586L11.2533 22.7114L11.3751 22.6247L10.7953 21.8099ZM10.8993 21.7359L11.4791 22.5507L11.6059 22.4605L11.6993 22.3359L10.8993 21.7359ZM10.9113 21.7199L11.7113 22.3199L11.8368 22.1526L11.8847 21.949L10.9113 21.7199ZM10.9153 21.7029L11.8887 21.932L11.9199 21.7993L11.9145 21.6632L10.9153 21.7029ZM10.8983 21.2759L11.8975 21.2362L11.8934 21.1333L11.8685 21.0334L10.8983 21.2759ZM11.1463 21.1449L11.404 20.1787L11.2015 20.1247L10.9943 20.1566L11.1463 21.1449ZM11.1333 21.1469L10.9813 20.1586L10.8253 20.1826L10.6842 20.2535L11.1333 21.1469ZM10.9483 21.2399L10.4992 20.3465L10.3552 20.4189L10.2412 20.5328L10.9483 21.2399ZM10.9383 21.2499L10.2312 20.5428L10.0434 20.7306L9.97354 20.9869L10.9383 21.2499ZM10.9353 21.2609L9.97054 20.9979L9.9297 21.1476L9.93619 21.3028L10.9353 21.2609ZM10.9533 21.6909L9.95419 21.7328L9.96165 21.911L10.0303 22.0756L10.9533 21.6909ZM10.9583 21.7029L10.0353 22.0876L10.1247 22.3023L10.2998 22.4555L10.9583 21.7029ZM10.9663 21.7099L10.3078 22.4625L10.416 22.5572L10.5464 22.6175L10.9663 21.7099ZM11.1673 21.8029L10.7474 22.7105L10.8275 22.7476L10.9128 22.77L11.1673 21.8029ZM11.1963 21.7949L11.9889 22.4046L12.1054 22.2533L12.1578 22.0696L11.1963 21.7949ZM11.2003 21.7809L12.1618 22.0556L12.2081 21.8938L12.1988 21.7256L11.2003 21.7809ZM11.1663 21.1669L12.1648 21.1116L12.1588 21.0036L12.1298 20.8993L11.1663 21.1669ZM10.4313 21.1469L9.91303 22.0021L9.94777 22.0232L9.9841 22.0414L10.4313 21.1469ZM10.4043 21.1529L9.57261 20.5977L9.52147 20.6743L9.48519 20.759L10.4043 21.1529ZM10.3983 21.1669L9.47919 20.773L9.40961 20.9353L9.39985 21.1116L10.3983 21.1669ZM10.3643 21.7809L9.36585 21.7256L9.36278 21.781L9.36586 21.8364L10.3643 21.7809ZM10.3813 21.8049L10.0302 22.7413L10.265 22.8293L10.5135 22.7962L10.3813 21.8049ZM10.3963 21.8029L10.5285 22.7942L10.6787 22.7741L10.8162 22.7105L10.3963 21.8029ZM10.5973 21.7099L11.0172 22.6175L11.1273 22.5666L11.222 22.4908L10.5973 21.7099ZM10.6073 21.7019L11.232 22.4828L11.4512 22.3075L11.5471 22.0437L10.6073 21.7019ZM10.6113 21.6909L11.5511 22.0327L11.6044 21.8862L11.6105 21.7304L10.6113 21.6909ZM10.6283 21.2609L11.6275 21.3004L11.6332 21.1573L11.5985 21.0184L10.6283 21.2609ZM10.6253 21.2489L11.5955 21.0064L11.5283 20.7377L11.3324 20.5418L10.6253 21.2489ZM10.6153 21.2389L11.3224 20.5318L11.2077 20.4171L11.0625 20.3445L10.6153 21.2389ZM10.8813 21.2579L10.7024 20.2741L10.6914 20.2761L10.8703 21.2599L11.0493 22.2438L11.0603 22.2418L10.8813 21.2579ZM10.8703 21.2599L10.4282 20.363L10.3572 20.398L10.7993 21.2949L11.2415 22.1919L11.3125 22.1569L10.8703 21.2599ZM10.7993 21.2949L10.6032 20.3144L10.5832 20.3184L10.7793 21.2989L10.9754 22.2795L10.9954 22.2755L10.7993 21.2949ZM10.7793 21.2989L11.054 20.3374L11.04 20.3334L10.7653 21.2949L10.4906 22.2565L10.5046 22.2605L10.7793 21.2989ZM10.7653 21.2949L11.2075 20.398L11.1365 20.363L10.6943 21.2599L10.2522 22.1569L10.3232 22.1919L10.7653 21.2949ZM10.6943 21.2599L10.9926 20.3055C10.8818 20.2708 10.6973 20.2337 10.4764 20.2797C10.234 20.3302 10.0304 20.4641 9.88945 20.6402L10.6703 21.2649L11.4512 21.8896C11.3156 22.0591 11.1187 22.1888 10.8842 22.2377C10.6713 22.282 10.4962 22.2457 10.396 22.2144L10.6943 21.2599ZM10.6703 21.2649L9.74183 20.8936L9.73783 20.9036L10.6663 21.2749L11.5948 21.6463L11.5988 21.6363L10.6703 21.2649ZM10.6663 21.2749L9.66711 21.2352L9.65011 21.6632L10.6493 21.7029L11.6485 21.7426L11.6655 21.3146L10.6663 21.2749ZM10.6493 21.7029L9.67918 21.9455L9.68418 21.9655L10.6543 21.7229L11.6245 21.4804L11.6195 21.4604L10.6493 21.7029ZM10.6543 21.7229L9.86169 22.3326L9.87169 22.3456L10.6643 21.7359L11.4569 21.1262L11.4469 21.1132L10.6543 21.7229ZM10.6643 21.7359L10.0846 22.5507L10.1886 22.6247L10.7683 21.8099L11.3481 20.9951L11.2441 20.9211L10.6643 21.7359ZM10.7683 21.8099L10.5107 22.7762L10.5257 22.7802L10.7833 21.8139L11.041 20.8477L11.026 20.8437L10.7683 21.8099ZM10.7833 21.8139L11.0995 22.7626L11.1115 22.7586L10.7953 21.8099L10.4791 20.8612L10.4671 20.8652L10.7833 21.8139ZM10.7953 21.8099L11.3751 22.6247L11.4791 22.5507L10.8993 21.7359L10.3196 20.9211L10.2156 20.9951L10.7953 21.8099ZM10.8993 21.7359L11.6993 22.3359L11.7113 22.3199L10.9113 21.7199L10.1113 21.12L10.0993 21.136L10.8993 21.7359ZM10.9113 21.7199L11.8847 21.949L11.8887 21.932L10.9153 21.7029L9.9419 21.4739L9.9379 21.4909L10.9113 21.7199ZM10.9153 21.7029L11.9145 21.6632L11.8975 21.2362L10.8983 21.2759L9.89911 21.3157L9.91611 21.7427L10.9153 21.7029ZM10.8983 21.2759L11.8685 21.0334C11.8389 20.915 11.7725 20.7392 11.6191 20.5768C11.4536 20.4016 11.2429 20.3018 11.0334 20.2696L10.8813 21.2579L10.7293 22.2463C10.5284 22.2154 10.3249 22.1193 10.165 21.95C10.0173 21.7936 9.95511 21.6262 9.92818 21.5185L10.8983 21.2759ZM11.1463 21.1449L10.9943 20.1566L10.9813 20.1586L11.1333 21.1469L11.2853 22.1353L11.2983 22.1333L11.1463 21.1449ZM11.1333 21.1469L10.6842 20.2535L10.4992 20.3465L10.9483 21.2399L11.3975 22.1334L11.5825 22.0404L11.1333 21.1469ZM10.9483 21.2399L10.2412 20.5328L10.2312 20.5428L10.9383 21.2499L11.6454 21.957L11.6554 21.947L10.9483 21.2399ZM10.9383 21.2499L9.97354 20.9869L9.97054 20.9979L10.9353 21.2609L11.9001 21.524L11.9031 21.513L10.9383 21.2499ZM10.9353 21.2609L9.93619 21.3028L9.95419 21.7328L10.9533 21.6909L11.9524 21.6491L11.9344 21.2191L10.9353 21.2609ZM10.9533 21.6909L10.0303 22.0756L10.0353 22.0876L10.9583 21.7029L11.8814 21.3183L11.8764 21.3063L10.9533 21.6909ZM10.9583 21.7029L10.2998 22.4555L10.3078 22.4625L10.9663 21.7099L11.6248 20.9573L11.6168 20.9503L10.9583 21.7029ZM10.9663 21.7099L10.5464 22.6175L10.7474 22.7105L11.1673 21.8029L11.5872 20.8954L11.3862 20.8024L10.9663 21.7099ZM11.1673 21.8029L10.9128 22.77C11.0389 22.8032 11.2305 22.828 11.45 22.7674C11.6834 22.7031 11.8658 22.5647 11.9889 22.4046L11.1963 21.7949L10.4037 21.1852C10.5201 21.0339 10.6944 20.9012 10.9182 20.8394C11.1279 20.7816 11.3084 20.806 11.4218 20.8359L11.1673 21.8029ZM11.1963 21.7949L12.1578 22.0696L12.1618 22.0556L11.2003 21.7809L10.2388 21.5062L10.2348 21.5202L11.1963 21.7949ZM11.2003 21.7809L12.1988 21.7256L12.1648 21.1116L11.1663 21.1669L10.1678 21.2222L10.2018 21.8362L11.2003 21.7809ZM11.1663 21.1669L12.1298 20.8993C12.0543 20.6274 11.831 20.2926 11.404 20.1787L11.1463 21.1449L10.8887 22.1112C10.7167 22.0653 10.5507 21.9701 10.4189 21.8251C10.2936 21.6873 10.2325 21.5415 10.2028 21.4346L11.1663 21.1669ZM10.4313 21.1469L10.9496 20.2917C10.7247 20.1555 10.4561 20.1114 10.1997 20.1683L10.4166 21.1445L10.6335 22.1207C10.3872 22.1754 10.1291 22.1331 9.91303 22.0021L10.4313 21.1469ZM10.4166 21.1445L10.1997 20.1683C9.94322 20.2253 9.71855 20.3791 9.57261 20.5977L10.4043 21.1529L11.236 21.7081C11.0958 21.9182 10.8799 22.0659 10.6335 22.1207L10.4166 21.1445ZM10.4043 21.1529L9.48519 20.759L9.47919 20.773L10.3983 21.1669L11.3175 21.5609L11.3235 21.5469L10.4043 21.1529ZM10.3983 21.1669L9.39985 21.1116L9.36585 21.7256L10.3643 21.7809L11.3628 21.8362L11.3968 21.2222L10.3983 21.1669ZM10.3643 21.7809L9.36586 21.8364C9.37427 21.9878 9.41921 22.185 9.55305 22.374C9.68936 22.5664 9.8687 22.6807 10.0302 22.7413L10.3813 21.8049L10.7324 20.8686C10.8833 20.9252 11.0544 21.0335 11.1851 21.2179C11.3133 21.3989 11.355 21.5861 11.3628 21.7255L10.3643 21.7809ZM10.3813 21.8049L10.5135 22.7962L10.5285 22.7942L10.3963 21.8029L10.2641 20.8117L10.2491 20.8137L10.3813 21.8049ZM10.3963 21.8029L10.8162 22.7105L11.0172 22.6175L10.5973 21.7099L10.1774 20.8024L9.9764 20.8954L10.3963 21.8029ZM10.5973 21.7099L11.222 22.4908L11.232 22.4828L10.6073 21.7019L9.98266 20.921L9.97266 20.929L10.5973 21.7099ZM10.6073 21.7019L11.5471 22.0437L11.5511 22.0327L10.6113 21.6909L9.67152 21.3492L9.66752 21.3602L10.6073 21.7019ZM10.6113 21.6909L11.6105 21.7304L11.6275 21.3004L10.6283 21.2609L9.6291 21.2214L9.6121 21.6514L10.6113 21.6909ZM10.6283 21.2609L11.5985 21.0184L11.5955 21.0064L10.6253 21.2489L9.65519 21.4915L9.65819 21.5035L10.6283 21.2609ZM10.6253 21.2489L11.3324 20.5418L11.3224 20.5318L10.6153 21.2389L9.90821 21.946L9.91821 21.956L10.6253 21.2489ZM10.6153 21.2389L11.0625 20.3445L10.8785 20.2525L10.4313 21.1469L9.9841 22.0414L10.1681 22.1334L10.6153 21.2389Z" fill="black" mask="url(#path-13-inside-5_261_92)"/>
<path d="M10.2881 0.747314C10.3865 0.747314 10.4838 0.766683 10.5742 0.803955L10.6621 0.846924C10.7474 0.895932 10.8221 0.961024 10.8818 1.03833L10.9365 1.11938L13.7314 5.91724L13.8418 6.10767L14.0576 6.15454L19.4854 7.33032C19.6134 7.35817 19.7319 7.41919 19.8291 7.50708C19.9263 7.59503 19.9986 7.70759 20.0391 7.83228C20.0794 7.95685 20.0865 8.08987 20.0596 8.21802C20.0393 8.31417 20.0003 8.40491 19.9453 8.4856L19.8857 8.56274L16.1855 12.7034L16.0391 12.8684L16.0605 13.0872L16.6211 18.6125C16.6343 18.743 16.6131 18.8747 16.5596 18.9944C16.506 19.1142 16.4216 19.218 16.3154 19.2952C16.2093 19.3722 16.0845 19.4199 15.9541 19.4338C15.8564 19.4442 15.7578 19.4359 15.6641 19.4084L15.5723 19.3743L10.4902 17.134L10.2881 17.0452L10.0869 17.134L5.00488 19.3743C4.88484 19.4272 4.75254 19.4478 4.62207 19.4338C4.49166 19.4199 4.36685 19.3723 4.26074 19.2952C4.15467 19.2181 4.07113 19.1141 4.01758 18.9944C3.97737 18.9045 3.95501 18.808 3.95215 18.7102L3.95605 18.6125L4.51562 13.0872L4.53809 12.8684L4.3916 12.7034L0.691406 8.56372L0.630859 8.48657C0.594066 8.43271 0.564646 8.37426 0.542969 8.31274L0.516602 8.21802C0.496349 8.12182 0.494902 8.02304 0.512695 7.927L0.537109 7.83228C0.567501 7.73864 0.615313 7.65188 0.678711 7.57739L0.74707 7.50708C0.820023 7.44115 0.905094 7.39062 0.99707 7.35767L1.09082 7.33032L6.51953 6.15454L6.73438 6.10767L6.8457 5.91724L9.64062 1.11938C9.69008 1.03464 9.75555 0.960816 9.83301 0.901611L9.91504 0.846924C10.0002 0.798073 10.0938 0.766885 10.1904 0.75415L10.2881 0.747314Z" fill="#ECE62F" stroke="black"/>
</svg>
